<svg width="559" height="108" viewBox="0 0 559 108" fill="none" xmlns="http://www.w3.org/2000/svg">
<path fill-rule="evenodd" clip-rule="evenodd" d="M24.1342 7.20164C9.66793 15.9633 0 31.8526 0 50C0 65.4444 7.00245 79.2534 18.0057 88.4251L24.1342 7.20164ZM18.0804 88.4872L71.5 80L75 93L94 64L62.5 51.5L65.5 62.5L38.6396 68L42.2398 0.598594C44.7688 0.204526 47.3605 0 50 0C77.6142 0 100 22.3858 100 50C100 77.6142 77.6142 100 50 100C37.8651 100 26.7399 95.6771 18.0804 88.4872Z" fill="#00C6AE"/>
<path d="M129 62V15.4545H141.636V51.8182H160.455V62H129ZM340.062 62V15.4545H352.699V51.8182H371.517V62H340.062Z" fill="#00C6AE"/>
<path d="M182.562 62.6364C178.775 62.6364 175.532 61.8864 172.835 60.3864C170.138 58.8712 168.07 56.7652 166.631 54.0682C165.191 51.3561 164.472 48.2121 164.472 44.6364C164.472 41.0606 165.191 37.9242 166.631 35.2273C168.07 32.5152 170.138 30.4091 172.835 28.9091C175.532 27.3939 178.775 26.6364 182.562 26.6364C186.35 26.6364 189.593 27.3939 192.29 28.9091C194.987 30.4091 197.055 32.5152 198.494 35.2273C199.934 37.9242 200.653 41.0606 200.653 44.6364C200.653 48.2121 199.934 51.3561 198.494 54.0682C197.055 56.7652 194.987 58.8712 192.29 60.3864C189.593 61.8864 186.35 62.6364 182.562 62.6364ZM182.653 53.3636C183.714 53.3636 184.631 53.0076 185.403 52.2955C186.176 51.5833 186.775 50.5682 187.199 49.25C187.623 47.9318 187.835 46.3636 187.835 44.5455C187.835 42.7121 187.623 41.1439 187.199 39.8409C186.775 38.5227 186.176 37.5076 185.403 36.7955C184.631 36.0833 183.714 35.7273 182.653 35.7273C181.532 35.7273 180.57 36.0833 179.767 36.7955C178.964 37.5076 178.35 38.5227 177.926 39.8409C177.502 41.1439 177.29 42.7121 177.29 44.5455C177.29 46.3636 177.502 47.9318 177.926 49.25C178.35 50.5682 178.964 51.5833 179.767 52.2955C180.57 53.0076 181.532 53.3636 182.653 53.3636ZM222.562 62.6364C218.775 62.6364 215.532 61.8864 212.835 60.3864C210.138 58.8712 208.07 56.7652 206.631 54.0682C205.191 51.3561 204.472 48.2121 204.472 44.6364C204.472 41.0606 205.191 37.9242 206.631 35.2273C208.07 32.5152 210.138 30.4091 212.835 28.9091C215.532 27.3939 218.775 26.6364 222.562 26.6364C225.987 26.6364 228.949 27.2576 231.449 28.5C233.964 29.7273 235.911 31.4697 237.29 33.7273C238.669 35.9697 239.366 38.6061 239.381 41.6364H227.744C227.578 39.803 227.047 38.4091 226.153 37.4545C225.275 36.4848 224.138 36 222.744 36C221.653 36 220.699 36.3182 219.881 36.9545C219.063 37.5758 218.426 38.5227 217.972 39.7955C217.517 41.053 217.29 42.6364 217.29 44.5455C217.29 46.4545 217.517 48.0455 217.972 49.3182C218.426 50.5758 219.063 51.5227 219.881 52.1591C220.699 52.7803 221.653 53.0909 222.744 53.0909C223.669 53.0909 224.487 52.8788 225.199 52.4545C225.911 52.0152 226.487 51.3788 226.926 50.5455C227.381 49.697 227.653 48.6667 227.744 47.4545H239.381C239.335 50.5303 238.631 53.2121 237.267 55.5C235.903 57.7727 233.972 59.5303 231.472 60.7727C228.987 62.0152 226.017 62.6364 222.562 62.6364ZM254.284 62.5455C252.057 62.5455 250.087 62.1818 248.375 61.4545C246.678 60.7121 245.345 59.5909 244.375 58.0909C243.405 56.5909 242.92 54.6818 242.92 52.3636C242.92 50.4545 243.246 48.8258 243.898 47.4773C244.549 46.1136 245.458 45 246.625 44.1364C247.792 43.2727 249.148 42.6136 250.693 42.1591C252.254 41.7045 253.936 41.4091 255.739 41.2727C257.693 41.1212 259.261 40.9394 260.443 40.7273C261.64 40.5 262.504 40.1894 263.034 39.7955C263.564 39.3864 263.83 38.8485 263.83 38.1818V38.0909C263.83 37.1818 263.481 36.4848 262.784 36C262.087 35.5152 261.193 35.2727 260.102 35.2727C258.905 35.2727 257.928 35.5379 257.17 36.0682C256.428 36.5833 255.981 37.3788 255.83 38.4545H244.284C244.436 36.3333 245.11 34.3788 246.307 32.5909C247.519 30.7879 249.284 29.3485 251.602 28.2727C253.92 27.1818 256.814 26.6364 260.284 26.6364C262.784 26.6364 265.027 26.9318 267.011 27.5227C268.996 28.0985 270.686 28.9091 272.08 29.9545C273.473 30.9848 274.534 32.197 275.261 33.5909C276.004 34.9697 276.375 36.4697 276.375 38.0909V62H264.648V57.0909H264.375C263.678 58.3939 262.83 59.447 261.83 60.25C260.845 61.053 259.716 61.6364 258.443 62C257.186 62.3636 255.799 62.5455 254.284 62.5455ZM258.375 54.6364C259.33 54.6364 260.223 54.4394 261.057 54.0455C261.905 53.6515 262.595 53.0833 263.125 52.3409C263.655 51.5985 263.92 50.697 263.92 49.6364V46.7273C263.587 46.8636 263.231 46.9924 262.852 47.1136C262.489 47.2348 262.095 47.3485 261.67 47.4545C261.261 47.5606 260.822 47.6591 260.352 47.75C259.898 47.8409 259.42 47.9242 258.92 48C257.951 48.1515 257.155 48.4015 256.534 48.75C255.928 49.0833 255.473 49.5 255.17 50C254.883 50.4848 254.739 51.0303 254.739 51.6364C254.739 52.6061 255.08 53.3485 255.761 53.8636C256.443 54.3788 257.314 54.6364 258.375 54.6364ZM294.915 15.4545V62H282.369V15.4545H294.915ZM318.034 62.6364C314.307 62.6364 311.095 61.9242 308.398 60.5C305.716 59.0606 303.648 57 302.193 54.3182C300.754 51.6212 300.034 48.3939 300.034 44.6364C300.034 41.0303 300.761 37.8788 302.216 35.1818C303.67 32.4848 305.723 30.3864 308.375 28.8864C311.027 27.3864 314.155 26.6364 317.761 26.6364C320.398 26.6364 322.784 27.0455 324.92 27.8636C327.057 28.6818 328.883 29.8712 330.398 31.4318C331.913 32.9773 333.08 34.8561 333.898 37.0682C334.716 39.2803 335.125 41.7727 335.125 44.5455V47.4545H303.943V40.5455H323.58C323.564 39.5455 323.307 38.6667 322.807 37.9091C322.322 37.1364 321.663 36.5379 320.83 36.1136C320.011 35.6742 319.08 35.4545 318.034 35.4545C317.019 35.4545 316.087 35.6742 315.239 36.1136C314.39 36.5379 313.708 37.1288 313.193 37.8864C312.693 38.6439 312.428 39.5303 312.398 40.5455V48C312.398 49.1212 312.633 50.1212 313.102 51C313.572 51.8788 314.246 52.5682 315.125 53.0682C316.004 53.5682 317.064 53.8182 318.307 53.8182C319.17 53.8182 319.958 53.697 320.67 53.4545C321.398 53.2121 322.019 52.8636 322.534 52.4091C323.049 51.9394 323.428 51.3788 323.67 50.7273H335.125C334.731 53.1515 333.799 55.2576 332.33 57.0455C330.86 58.8182 328.913 60.197 326.489 61.1818C324.08 62.1515 321.261 62.6364 318.034 62.6364ZM393.534 62.6364C389.807 62.6364 386.595 61.9242 383.898 60.5C381.216 59.0606 379.148 57 377.693 54.3182C376.254 51.6212 375.534 48.3939 375.534 44.6364C375.534 41.0303 376.261 37.8788 377.716 35.1818C379.17 32.4848 381.223 30.3864 383.875 28.8864C386.527 27.3864 389.655 26.6364 393.261 26.6364C395.898 26.6364 398.284 27.0455 400.42 27.8636C402.557 28.6818 404.383 29.8712 405.898 31.4318C407.413 32.9773 408.58 34.8561 409.398 37.0682C410.216 39.2803 410.625 41.7727 410.625 44.5455V47.4545H379.443V40.5455H399.08C399.064 39.5455 398.807 38.6667 398.307 37.9091C397.822 37.1364 397.163 36.5379 396.33 36.1136C395.511 35.6742 394.58 35.4545 393.534 35.4545C392.519 35.4545 391.587 35.6742 390.739 36.1136C389.89 36.5379 389.208 37.1288 388.693 37.8864C388.193 38.6439 387.928 39.5303 387.898 40.5455V48C387.898 49.1212 388.133 50.1212 388.602 51C389.072 51.8788 389.746 52.5682 390.625 53.0682C391.504 53.5682 392.564 53.8182 393.807 53.8182C394.67 53.8182 395.458 53.697 396.17 53.4545C396.898 53.2121 397.519 52.8636 398.034 52.4091C398.549 51.9394 398.928 51.3788 399.17 50.7273H410.625C410.231 53.1515 409.299 55.2576 407.83 57.0455C406.36 58.8182 404.413 60.197 401.989 61.1818C399.58 62.1515 396.761 62.6364 393.534 62.6364ZM425.472 62.5455C423.244 62.5455 421.275 62.1818 419.562 61.4545C417.866 60.7121 416.532 59.5909 415.562 58.0909C414.593 56.5909 414.108 54.6818 414.108 52.3636C414.108 50.4545 414.434 48.8258 415.085 47.4773C415.737 46.1136 416.646 45 417.812 44.1364C418.979 43.2727 420.335 42.6136 421.881 42.1591C423.441 41.7045 425.123 41.4091 426.926 41.2727C428.881 41.1212 430.449 40.9394 431.631 40.7273C432.828 40.5 433.691 40.1894 434.222 39.7955C434.752 39.3864 435.017 38.8485 435.017 38.1818V38.0909C435.017 37.1818 434.669 36.4848 433.972 36C433.275 35.5152 432.381 35.2727 431.29 35.2727C430.093 35.2727 429.116 35.5379 428.358 36.0682C427.616 36.5833 427.169 37.3788 427.017 38.4545H415.472C415.623 36.3333 416.297 34.3788 417.494 32.5909C418.706 30.7879 420.472 29.3485 422.79 28.2727C425.108 27.1818 428.002 26.6364 431.472 26.6364C433.972 26.6364 436.214 26.9318 438.199 27.5227C440.184 28.0985 441.873 28.9091 443.267 29.9545C444.661 30.9848 445.722 32.197 446.449 33.5909C447.191 34.9697 447.562 36.4697 447.562 38.0909V62H435.835V57.0909H435.562C434.866 58.3939 434.017 59.447 433.017 60.25C432.032 61.053 430.903 61.6364 429.631 62C428.373 62.3636 426.987 62.5455 425.472 62.5455ZM429.562 54.6364C430.517 54.6364 431.411 54.4394 432.244 54.0455C433.093 53.6515 433.782 53.0833 434.312 52.3409C434.843 51.5985 435.108 50.697 435.108 49.6364V46.7273C434.775 46.8636 434.419 46.9924 434.04 47.1136C433.676 47.2348 433.282 47.3485 432.858 47.4545C432.449 47.5606 432.009 47.6591 431.54 47.75C431.085 47.8409 430.608 47.9242 430.108 48C429.138 48.1515 428.343 48.4015 427.722 48.75C427.116 49.0833 426.661 49.5 426.358 50C426.07 50.4848 425.926 51.0303 425.926 51.6364C425.926 52.6061 426.267 53.3485 426.949 53.8636C427.631 54.3788 428.502 54.6364 429.562 54.6364ZM453.557 75.0909V27.0909H466.011V33.1818H466.284C466.739 32 467.405 30.9167 468.284 29.9318C469.163 28.9318 470.254 28.1364 471.557 27.5455C472.86 26.9394 474.375 26.6364 476.102 26.6364C478.405 26.6364 480.595 27.25 482.67 28.4773C484.761 29.7045 486.458 31.6364 487.761 34.2727C489.08 36.9091 489.739 40.3333 489.739 44.5455C489.739 48.5758 489.11 51.9167 487.852 54.5682C486.61 57.2197 484.943 59.197 482.852 60.5C480.777 61.803 478.496 62.4545 476.011 62.4545C474.375 62.4545 472.913 62.1894 471.625 61.6591C470.352 61.1136 469.261 60.3788 468.352 59.4545C467.458 58.5152 466.769 57.4545 466.284 56.2727H466.102V75.0909H453.557ZM465.83 44.5455C465.83 46.2424 466.049 47.7121 466.489 48.9545C466.943 50.1818 467.58 51.1364 468.398 51.8182C469.231 52.4848 470.223 52.8182 471.375 52.8182C472.527 52.8182 473.504 52.4924 474.307 51.8409C475.125 51.1742 475.746 50.2273 476.17 49C476.61 47.7576 476.83 46.2727 476.83 44.5455C476.83 42.8182 476.61 41.3409 476.17 40.1136C475.746 38.8712 475.125 37.9242 474.307 37.2727C473.504 36.6061 472.527 36.2727 471.375 36.2727C470.223 36.2727 469.231 36.6061 468.398 37.2727C467.58 37.9242 466.943 38.8712 466.489 40.1136C466.049 41.3409 465.83 42.8182 465.83 44.5455ZM511.722 62.6364C507.994 62.6364 504.782 61.9242 502.085 60.5C499.403 59.0606 497.335 57 495.881 54.3182C494.441 51.6212 493.722 48.3939 493.722 44.6364C493.722 41.0303 494.449 37.8788 495.903 35.1818C497.358 32.4848 499.411 30.3864 502.062 28.8864C504.714 27.3864 507.843 26.6364 511.449 26.6364C514.085 26.6364 516.472 27.0455 518.608 27.8636C520.744 28.6818 522.57 29.8712 524.085 31.4318C525.6 32.9773 526.767 34.8561 527.585 37.0682C528.403 39.2803 528.812 41.7727 528.812 44.5455V47.4545H497.631V40.5455H517.267C517.252 39.5455 516.994 38.6667 516.494 37.9091C516.009 37.1364 515.35 36.5379 514.517 36.1136C513.699 35.6742 512.767 35.4545 511.722 35.4545C510.706 35.4545 509.775 35.6742 508.926 36.1136C508.078 36.5379 507.396 37.1288 506.881 37.8864C506.381 38.6439 506.116 39.5303 506.085 40.5455V48C506.085 49.1212 506.32 50.1212 506.79 51C507.259 51.8788 507.934 52.5682 508.812 53.0682C509.691 53.5682 510.752 53.8182 511.994 53.8182C512.858 53.8182 513.646 53.697 514.358 53.4545C515.085 53.2121 515.706 52.8636 516.222 52.4091C516.737 51.9394 517.116 51.3788 517.358 50.7273H528.812C528.419 53.1515 527.487 55.2576 526.017 57.0455C524.547 58.8182 522.6 60.197 520.176 61.1818C517.767 62.1515 514.949 62.6364 511.722 62.6364ZM533.932 62V27.0909H546.114V33.7273H546.477C547.114 31.2727 548.121 29.4773 549.5 28.3409C550.894 27.2045 552.523 26.6364 554.386 26.6364C554.932 26.6364 555.47 26.6818 556 26.7727C556.545 26.8485 557.068 26.9621 557.568 27.1136V37.8182C556.947 37.6061 556.182 37.447 555.273 37.3409C554.364 37.2348 553.583 37.1818 552.932 37.1818C551.705 37.1818 550.598 37.4621 549.614 38.0227C548.644 38.5682 547.879 39.3409 547.318 40.3409C546.758 41.3258 546.477 42.4848 546.477 43.8182V62H533.932Z" fill="white"/>
<path d="M267.045 82.5455V87.0909H255.364V82.5455H267.045ZM257.591 100V82.0455C257.591 80.6061 257.848 79.4129 258.364 78.4659C258.879 77.5189 259.606 76.8106 260.545 76.3409C261.485 75.8712 262.591 75.6364 263.864 75.6364C264.659 75.6364 265.432 75.697 266.182 75.8182C266.939 75.9394 267.5 76.0455 267.864 76.1364L266.955 80.6364C266.727 80.5682 266.462 80.5152 266.159 80.4773C265.856 80.4318 265.591 80.4091 265.364 80.4091C264.773 80.4091 264.375 80.5341 264.17 80.7841C263.966 81.0341 263.864 81.3636 263.864 81.7727V100H257.591ZM277.344 100.318C275.45 100.318 273.829 99.9432 272.48 99.1932C271.132 98.4356 270.098 97.3826 269.378 96.0341C268.658 94.678 268.298 93.1061 268.298 91.3182C268.298 89.5303 268.658 87.9621 269.378 86.6136C270.098 85.2576 271.132 84.2045 272.48 83.4545C273.829 82.697 275.45 82.3182 277.344 82.3182C279.238 82.3182 280.859 82.697 282.207 83.4545C283.556 84.2045 284.59 85.2576 285.31 86.6136C286.029 87.9621 286.389 89.5303 286.389 91.3182C286.389 93.1061 286.029 94.678 285.31 96.0341C284.59 97.3826 283.556 98.4356 282.207 99.1932C280.859 99.9432 279.238 100.318 277.344 100.318ZM277.389 95.6818C277.92 95.6818 278.378 95.5038 278.764 95.1477C279.151 94.7917 279.45 94.2841 279.662 93.625C279.874 92.9659 279.98 92.1818 279.98 91.2727C279.98 90.3561 279.874 89.572 279.662 88.9205C279.45 88.2614 279.151 87.7538 278.764 87.3977C278.378 87.0417 277.92 86.8636 277.389 86.8636C276.829 86.8636 276.348 87.0417 275.946 87.3977C275.545 87.7538 275.238 88.2614 275.026 88.9205C274.813 89.572 274.707 90.3561 274.707 91.2727C274.707 92.1818 274.813 92.9659 275.026 93.625C275.238 94.2841 275.545 94.7917 275.946 95.1477C276.348 95.5038 276.829 95.6818 277.389 95.6818ZM288.935 100V82.5455H295.026V85.8636H295.207C295.526 84.6364 296.029 83.7386 296.719 83.1705C297.416 82.6023 298.23 82.3182 299.162 82.3182C299.435 82.3182 299.704 82.3409 299.969 82.3864C300.241 82.4242 300.503 82.4811 300.753 82.5568V87.9091C300.442 87.803 300.06 87.7235 299.605 87.6705C299.151 87.6174 298.76 87.5909 298.435 87.5909C297.821 87.5909 297.268 87.7311 296.776 88.0114C296.291 88.2841 295.908 88.6705 295.628 89.1705C295.348 89.6629 295.207 90.2424 295.207 90.9091V100H288.935ZM314.821 95.8636L314.866 88.4091H315.685L319.912 82.5455H326.957L319.866 91.6818H318.094L314.821 95.8636ZM309.185 100V76.7273H315.457V100H309.185ZM319.957 100L315.957 93.0909L320.048 88.6364L327.139 100H319.957ZM328.591 100V82.5455H334.864V100H328.591ZM331.727 80.7273C330.879 80.7273 330.152 80.447 329.545 79.8864C328.939 79.3258 328.636 78.6515 328.636 77.8636C328.636 77.0758 328.939 76.4015 329.545 75.8409C330.152 75.2803 330.879 75 331.727 75C332.583 75 333.311 75.2803 333.909 75.8409C334.515 76.4015 334.818 77.0758 334.818 77.8636C334.818 78.6515 334.515 79.3258 333.909 79.8864C333.311 80.447 332.583 80.7273 331.727 80.7273ZM344.332 90.1818V100H338.06V82.5455H344.014V85.8636H344.196C344.575 84.7576 345.241 83.8902 346.196 83.2614C347.158 82.6326 348.279 82.3182 349.56 82.3182C350.795 82.3182 351.866 82.6023 352.776 83.1705C353.692 83.7311 354.401 84.5038 354.901 85.4886C355.408 86.4735 355.658 87.5985 355.651 88.8636V100H349.378V90.1818C349.385 89.3182 349.166 88.6402 348.719 88.1477C348.279 87.6553 347.666 87.4091 346.878 87.4091C346.363 87.4091 345.912 87.5227 345.526 87.75C345.147 87.9697 344.855 88.2879 344.651 88.7045C344.446 89.1136 344.34 89.6061 344.332 90.1818ZM369.156 82.5455V87.0909H357.656V82.5455H369.156ZM359.884 78.3636H366.156V94.3864C366.156 94.6288 366.198 94.8333 366.281 95C366.365 95.1591 366.493 95.2803 366.668 95.3636C366.842 95.4394 367.065 95.4773 367.338 95.4773C367.527 95.4773 367.747 95.4545 367.997 95.4091C368.255 95.3636 368.444 95.3258 368.565 95.2955L369.474 99.7045C369.194 99.7879 368.793 99.8902 368.27 100.011C367.755 100.133 367.141 100.212 366.429 100.25C364.99 100.326 363.781 100.178 362.804 99.8068C361.827 99.428 361.092 98.8333 360.599 98.0227C360.107 97.2121 359.868 96.197 359.884 94.9773V78.3636ZM379.938 100.318C378.044 100.318 376.422 99.9432 375.074 99.1932C373.725 98.4356 372.691 97.3826 371.972 96.0341C371.252 94.678 370.892 93.1061 370.892 91.3182C370.892 89.5303 371.252 87.9621 371.972 86.6136C372.691 85.2576 373.725 84.2045 375.074 83.4545C376.422 82.697 378.044 82.3182 379.938 82.3182C381.831 82.3182 383.453 82.697 384.801 83.4545C386.15 84.2045 387.184 85.2576 387.903 86.6136C388.623 87.9621 388.983 89.5303 388.983 91.3182C388.983 93.1061 388.623 94.678 387.903 96.0341C387.184 97.3826 386.15 98.4356 384.801 99.1932C383.453 99.9432 381.831 100.318 379.938 100.318ZM379.983 95.6818C380.513 95.6818 380.972 95.5038 381.358 95.1477C381.744 94.7917 382.044 94.2841 382.256 93.625C382.468 92.9659 382.574 92.1818 382.574 91.2727C382.574 90.3561 382.468 89.572 382.256 88.9205C382.044 88.2614 381.744 87.7538 381.358 87.3977C380.972 87.0417 380.513 86.8636 379.983 86.8636C379.422 86.8636 378.941 87.0417 378.54 87.3977C378.138 87.7538 377.831 88.2614 377.619 88.9205C377.407 89.572 377.301 90.3561 377.301 91.2727C377.301 92.1818 377.407 92.9659 377.619 93.625C377.831 94.2841 378.138 94.7917 378.54 95.1477C378.941 95.5038 379.422 95.6818 379.983 95.6818ZM397.801 90.1818V100H391.528V82.5455H397.483V85.8636H397.665C398.044 84.7576 398.71 83.8902 399.665 83.2614C400.627 82.6326 401.748 82.3182 403.028 82.3182C404.263 82.3182 405.335 82.6023 406.244 83.1705C407.161 83.7311 407.869 84.5038 408.369 85.4886C408.877 86.4735 409.127 87.5985 409.119 88.8636V100H402.847V90.1818C402.854 89.3182 402.634 88.6402 402.188 88.1477C401.748 87.6553 401.134 87.4091 400.347 87.4091C399.831 87.4091 399.381 87.5227 398.994 87.75C398.616 87.9697 398.324 88.2879 398.119 88.7045C397.915 89.1136 397.809 89.6061 397.801 90.1818ZM420.58 100.318C418.716 100.318 417.11 99.9621 415.761 99.25C414.42 98.5303 413.386 97.5 412.659 96.1591C411.939 94.8106 411.58 93.197 411.58 91.3182C411.58 89.5152 411.943 87.9394 412.67 86.5909C413.398 85.2424 414.424 84.1932 415.75 83.4432C417.076 82.6932 418.64 82.3182 420.443 82.3182C421.761 82.3182 422.955 82.5227 424.023 82.9318C425.091 83.3409 426.004 83.9356 426.761 84.7159C427.519 85.4886 428.102 86.428 428.511 87.5341C428.92 88.6402 429.125 89.8864 429.125 91.2727V92.7273H413.534V89.2727H423.352C423.345 88.7727 423.216 88.3333 422.966 87.9545C422.723 87.5682 422.394 87.2689 421.977 87.0568C421.568 86.8371 421.102 86.7273 420.58 86.7273C420.072 86.7273 419.606 86.8371 419.182 87.0568C418.758 87.2689 418.417 87.5644 418.159 87.9432C417.909 88.322 417.777 88.7652 417.761 89.2727V93C417.761 93.5606 417.879 94.0606 418.114 94.5C418.348 94.9394 418.686 95.2841 419.125 95.5341C419.564 95.7841 420.095 95.9091 420.716 95.9091C421.148 95.9091 421.542 95.8485 421.898 95.7273C422.261 95.6061 422.572 95.4318 422.83 95.2045C423.087 94.9697 423.277 94.6894 423.398 94.3636H429.125C428.928 95.5758 428.462 96.6288 427.727 97.5227C426.992 98.4091 426.019 99.0985 424.807 99.5909C423.602 100.076 422.193 100.318 420.58 100.318Z" fill="white"/>
</svg>
