<svg width="1060" height="116" viewBox="0 0 1060 116" fill="none" xmlns="http://www.w3.org/2000/svg">
<path fill-rule="evenodd" clip-rule="evenodd" d="M24.1342 15.2016C9.66793 23.9633 0 39.8526 0 58C0 73.4444 7.00245 87.2534 18.0057 96.4251L24.1342 15.2016ZM18.0804 96.4872L71.5 88L75 101L94 72L62.5 59.5L65.5 70.5L38.6396 76L42.2398 8.59859C44.7688 8.20453 47.3605 8 50 8C77.6142 8 100 30.3858 100 58C100 85.6142 77.6142 108 50 108C37.8651 108 26.7399 103.677 18.0804 96.4872Z" fill="#00C6AE"/>
<path d="M130.5 93V23.1818H149.455V77.7273H177.682V93H130.5ZM447.094 93V23.1818H466.048V77.7273H494.276V93H447.094Z" fill="#00C6AE"/>
<path d="M210.844 93.9545C205.162 93.9545 200.298 92.8295 196.253 90.5795C192.207 88.3068 189.105 85.1477 186.946 81.1023C184.787 77.0341 183.707 72.3182 183.707 66.9545C183.707 61.5909 184.787 56.8864 186.946 52.8409C189.105 48.7727 192.207 45.6136 196.253 43.3636C200.298 41.0909 205.162 39.9545 210.844 39.9545C216.526 39.9545 221.389 41.0909 225.435 43.3636C229.48 45.6136 232.582 48.7727 234.741 52.8409C236.901 56.8864 237.98 61.5909 237.98 66.9545C237.98 72.3182 236.901 77.0341 234.741 81.1023C232.582 85.1477 229.48 88.3068 225.435 90.5795C221.389 92.8295 216.526 93.9545 210.844 93.9545ZM210.98 80.0455C212.571 80.0455 213.946 79.5114 215.105 78.4432C216.264 77.375 217.162 75.8523 217.798 73.875C218.435 71.8977 218.753 69.5455 218.753 66.8182C218.753 64.0682 218.435 61.7159 217.798 59.7614C217.162 57.7841 216.264 56.2614 215.105 55.1932C213.946 54.125 212.571 53.5909 210.98 53.5909C209.298 53.5909 207.855 54.125 206.651 55.1932C205.446 56.2614 204.526 57.7841 203.889 59.7614C203.253 61.7159 202.935 64.0682 202.935 66.8182C202.935 69.5455 203.253 71.8977 203.889 73.875C204.526 75.8523 205.446 77.375 206.651 78.4432C207.855 79.5114 209.298 80.0455 210.98 80.0455ZM270.844 93.9545C265.162 93.9545 260.298 92.8295 256.253 90.5795C252.207 88.3068 249.105 85.1477 246.946 81.1023C244.787 77.0341 243.707 72.3182 243.707 66.9545C243.707 61.5909 244.787 56.8864 246.946 52.8409C249.105 48.7727 252.207 45.6136 256.253 43.3636C260.298 41.0909 265.162 39.9545 270.844 39.9545C275.98 39.9545 280.423 40.8864 284.173 42.75C287.946 44.5909 290.866 47.2045 292.935 50.5909C295.003 53.9545 296.048 57.9091 296.071 62.4545H278.616C278.366 59.7045 277.571 57.6136 276.23 56.1818C274.912 54.7273 273.207 54 271.116 54C269.48 54 268.048 54.4773 266.821 55.4318C265.594 56.3636 264.639 57.7841 263.957 59.6932C263.276 61.5795 262.935 63.9545 262.935 66.8182C262.935 69.6818 263.276 72.0682 263.957 73.9773C264.639 75.8636 265.594 77.2841 266.821 78.2386C268.048 79.1705 269.48 79.6364 271.116 79.6364C272.503 79.6364 273.73 79.3182 274.798 78.6818C275.866 78.0227 276.73 77.0682 277.389 75.8182C278.071 74.5455 278.48 73 278.616 71.1818H296.071C296.003 75.7955 294.946 79.8182 292.901 83.25C290.855 86.6591 287.957 89.2955 284.207 91.1591C280.48 93.0227 276.026 93.9545 270.844 93.9545ZM318.426 93.8182C315.085 93.8182 312.131 93.2727 309.562 92.1818C307.017 91.0682 305.017 89.3864 303.562 87.1364C302.108 84.8864 301.381 82.0227 301.381 78.5455C301.381 75.6818 301.869 73.2386 302.847 71.2159C303.824 69.1705 305.188 67.5 306.938 66.2045C308.688 64.9091 310.722 63.9205 313.04 63.2386C315.381 62.5568 317.903 62.1136 320.608 61.9091C323.54 61.6818 325.892 61.4091 327.665 61.0909C329.46 60.75 330.756 60.2841 331.551 59.6932C332.347 59.0795 332.744 58.2727 332.744 57.2727V57.1364C332.744 55.7727 332.222 54.7273 331.176 54C330.131 53.2727 328.79 52.9091 327.153 52.9091C325.358 52.9091 323.892 53.3068 322.756 54.1023C321.642 54.875 320.972 56.0682 320.744 57.6818H303.426C303.653 54.5 304.665 51.5682 306.46 48.8864C308.278 46.1818 310.926 44.0227 314.403 42.4091C317.881 40.7727 322.222 39.9545 327.426 39.9545C331.176 39.9545 334.54 40.3977 337.517 41.2841C340.494 42.1477 343.028 43.3636 345.119 44.9318C347.21 46.4773 348.801 48.2955 349.892 50.3864C351.006 52.4545 351.562 54.7045 351.562 57.1364V93H333.972V85.6364H333.562C332.517 87.5909 331.244 89.1705 329.744 90.375C328.267 91.5795 326.574 92.4545 324.665 93C322.778 93.5455 320.699 93.8182 318.426 93.8182ZM324.562 81.9545C325.994 81.9545 327.335 81.6591 328.585 81.0682C329.858 80.4773 330.892 79.625 331.688 78.5114C332.483 77.3977 332.881 76.0455 332.881 74.4545V70.0909C332.381 70.2955 331.847 70.4886 331.278 70.6705C330.733 70.8523 330.142 71.0227 329.506 71.1818C328.892 71.3409 328.233 71.4886 327.528 71.625C326.847 71.7614 326.131 71.8864 325.381 72C323.926 72.2273 322.733 72.6023 321.801 73.125C320.892 73.625 320.21 74.25 319.756 75C319.324 75.7273 319.108 76.5455 319.108 77.4545C319.108 78.9091 319.619 80.0227 320.642 80.7955C321.665 81.5682 322.972 81.9545 324.562 81.9545ZM379.372 23.1818V93H360.554V23.1818H379.372ZM414.051 93.9545C408.46 93.9545 403.642 92.8864 399.597 90.75C395.574 88.5909 392.472 85.5 390.29 81.4773C388.131 77.4318 387.051 72.5909 387.051 66.9545C387.051 61.5455 388.142 56.8182 390.324 52.7727C392.506 48.7273 395.585 45.5795 399.562 43.3295C403.54 41.0795 408.233 39.9545 413.642 39.9545C417.597 39.9545 421.176 40.5682 424.381 41.7955C427.585 43.0227 430.324 44.8068 432.597 47.1477C434.869 49.4659 436.619 52.2841 437.847 55.6023C439.074 58.9205 439.688 62.6591 439.688 66.8182V71.1818H392.915V60.8182H422.369C422.347 59.3182 421.96 58 421.21 56.8636C420.483 55.7045 419.494 54.8068 418.244 54.1705C417.017 53.5114 415.619 53.1818 414.051 53.1818C412.528 53.1818 411.131 53.5114 409.858 54.1705C408.585 54.8068 407.563 55.6932 406.79 56.8295C406.04 57.9659 405.642 59.2955 405.597 60.8182V72C405.597 73.6818 405.949 75.1818 406.653 76.5C407.358 77.8182 408.369 78.8523 409.688 79.6023C411.006 80.3523 412.597 80.7273 414.46 80.7273C415.756 80.7273 416.938 80.5455 418.006 80.1818C419.097 79.8182 420.028 79.2955 420.801 78.6136C421.574 77.9091 422.142 77.0682 422.506 76.0909H439.688C439.097 79.7273 437.699 82.8864 435.494 85.5682C433.29 88.2273 430.369 90.2955 426.733 91.7727C423.119 93.2273 418.892 93.9545 414.051 93.9545ZM527.301 93.9545C521.71 93.9545 516.892 92.8864 512.847 90.75C508.824 88.5909 505.722 85.5 503.54 81.4773C501.381 77.4318 500.301 72.5909 500.301 66.9545C500.301 61.5455 501.392 56.8182 503.574 52.7727C505.756 48.7273 508.835 45.5795 512.812 43.3295C516.79 41.0795 521.483 39.9545 526.892 39.9545C530.847 39.9545 534.426 40.5682 537.631 41.7955C540.835 43.0227 543.574 44.8068 545.847 47.1477C548.119 49.4659 549.869 52.2841 551.097 55.6023C552.324 58.9205 552.938 62.6591 552.938 66.8182V71.1818H506.165V60.8182H535.619C535.597 59.3182 535.21 58 534.46 56.8636C533.733 55.7045 532.744 54.8068 531.494 54.1705C530.267 53.5114 528.869 53.1818 527.301 53.1818C525.778 53.1818 524.381 53.5114 523.108 54.1705C521.835 54.8068 520.813 55.6932 520.04 56.8295C519.29 57.9659 518.892 59.2955 518.847 60.8182V72C518.847 73.6818 519.199 75.1818 519.903 76.5C520.608 77.8182 521.619 78.8523 522.938 79.6023C524.256 80.3523 525.847 80.7273 527.71 80.7273C529.006 80.7273 530.188 80.5455 531.256 80.1818C532.347 79.8182 533.278 79.2955 534.051 78.6136C534.824 77.9091 535.392 77.0682 535.756 76.0909H552.938C552.347 79.7273 550.949 82.8864 548.744 85.5682C546.54 88.2273 543.619 90.2955 539.983 91.7727C536.369 93.2273 532.142 93.9545 527.301 93.9545ZM575.207 93.8182C571.866 93.8182 568.912 93.2727 566.344 92.1818C563.798 91.0682 561.798 89.3864 560.344 87.1364C558.889 84.8864 558.162 82.0227 558.162 78.5455C558.162 75.6818 558.651 73.2386 559.628 71.2159C560.605 69.1705 561.969 67.5 563.719 66.2045C565.469 64.9091 567.503 63.9205 569.821 63.2386C572.162 62.5568 574.685 62.1136 577.389 61.9091C580.321 61.6818 582.673 61.4091 584.446 61.0909C586.241 60.75 587.537 60.2841 588.332 59.6932C589.128 59.0795 589.526 58.2727 589.526 57.2727V57.1364C589.526 55.7727 589.003 54.7273 587.957 54C586.912 53.2727 585.571 52.9091 583.935 52.9091C582.139 52.9091 580.673 53.3068 579.537 54.1023C578.423 54.875 577.753 56.0682 577.526 57.6818H560.207C560.435 54.5 561.446 51.5682 563.241 48.8864C565.06 46.1818 567.707 44.0227 571.185 42.4091C574.662 40.7727 579.003 39.9545 584.207 39.9545C587.957 39.9545 591.321 40.3977 594.298 41.2841C597.276 42.1477 599.81 43.3636 601.901 44.9318C603.991 46.4773 605.582 48.2955 606.673 50.3864C607.787 52.4545 608.344 54.7045 608.344 57.1364V93H590.753V85.6364H590.344C589.298 87.5909 588.026 89.1705 586.526 90.375C585.048 91.5795 583.355 92.4545 581.446 93C579.56 93.5455 577.48 93.8182 575.207 93.8182ZM581.344 81.9545C582.776 81.9545 584.116 81.6591 585.366 81.0682C586.639 80.4773 587.673 79.625 588.469 78.5114C589.264 77.3977 589.662 76.0455 589.662 74.4545V70.0909C589.162 70.2955 588.628 70.4886 588.06 70.6705C587.514 70.8523 586.923 71.0227 586.287 71.1818C585.673 71.3409 585.014 71.4886 584.31 71.625C583.628 71.7614 582.912 71.8864 582.162 72C580.707 72.2273 579.514 72.6023 578.582 73.125C577.673 73.625 576.991 74.25 576.537 75C576.105 75.7273 575.889 76.5455 575.889 77.4545C575.889 78.9091 576.401 80.0227 577.423 80.7955C578.446 81.5682 579.753 81.9545 581.344 81.9545ZM617.335 112.636V40.6364H636.017V49.7727H636.426C637.108 48 638.108 46.375 639.426 44.8977C640.744 43.3977 642.381 42.2045 644.335 41.3182C646.29 40.4091 648.563 39.9545 651.153 39.9545C654.608 39.9545 657.892 40.875 661.006 42.7159C664.142 44.5568 666.688 47.4545 668.642 51.4091C670.619 55.3636 671.608 60.5 671.608 66.8182C671.608 72.8636 670.665 77.875 668.778 81.8523C666.915 85.8295 664.415 88.7955 661.278 90.75C658.165 92.7045 654.744 93.6818 651.017 93.6818C648.562 93.6818 646.369 93.2841 644.438 92.4886C642.528 91.6705 640.892 90.5682 639.528 89.1818C638.188 87.7727 637.153 86.1818 636.426 84.4091H636.153V112.636H617.335ZM635.744 66.8182C635.744 69.3636 636.074 71.5682 636.733 73.4318C637.415 75.2727 638.369 76.7045 639.597 77.7273C640.847 78.7273 642.335 79.2273 644.062 79.2273C645.79 79.2273 647.256 78.7386 648.46 77.7614C649.688 76.7614 650.619 75.3409 651.256 73.5C651.915 71.6364 652.244 69.4091 652.244 66.8182C652.244 64.2273 651.915 62.0114 651.256 60.1705C650.619 58.3068 649.688 56.8864 648.46 55.9091C647.256 54.9091 645.79 54.4091 644.062 54.4091C642.335 54.4091 640.847 54.9091 639.597 55.9091C638.369 56.8864 637.415 58.3068 636.733 60.1705C636.074 62.0114 635.744 64.2273 635.744 66.8182ZM704.582 93.9545C698.991 93.9545 694.173 92.8864 690.128 90.75C686.105 88.5909 683.003 85.5 680.821 81.4773C678.662 77.4318 677.582 72.5909 677.582 66.9545C677.582 61.5455 678.673 56.8182 680.855 52.7727C683.037 48.7273 686.116 45.5795 690.094 43.3295C694.071 41.0795 698.764 39.9545 704.173 39.9545C708.128 39.9545 711.707 40.5682 714.912 41.7955C718.116 43.0227 720.855 44.8068 723.128 47.1477C725.401 49.4659 727.151 52.2841 728.378 55.6023C729.605 58.9205 730.219 62.6591 730.219 66.8182V71.1818H683.446V60.8182H712.901C712.878 59.3182 712.491 58 711.741 56.8636C711.014 55.7045 710.026 54.8068 708.776 54.1705C707.548 53.5114 706.151 53.1818 704.582 53.1818C703.06 53.1818 701.662 53.5114 700.389 54.1705C699.116 54.8068 698.094 55.6932 697.321 56.8295C696.571 57.9659 696.173 59.2955 696.128 60.8182V72C696.128 73.6818 696.48 75.1818 697.185 76.5C697.889 77.8182 698.901 78.8523 700.219 79.6023C701.537 80.3523 703.128 80.7273 704.991 80.7273C706.287 80.7273 707.469 80.5455 708.537 80.1818C709.628 79.8182 710.56 79.2955 711.332 78.6136C712.105 77.9091 712.673 77.0682 713.037 76.0909H730.219C729.628 79.7273 728.23 82.8864 726.026 85.5682C723.821 88.2273 720.901 90.2955 717.264 91.7727C713.651 93.2273 709.423 93.9545 704.582 93.9545ZM737.898 93V40.6364H756.17V50.5909H756.716C757.67 46.9091 759.182 44.2159 761.25 42.5114C763.341 40.8068 765.784 39.9545 768.58 39.9545C769.398 39.9545 770.205 40.0227 771 40.1591C771.818 40.2727 772.602 40.4432 773.352 40.6705V56.7273C772.42 56.4091 771.273 56.1705 769.909 56.0114C768.545 55.8523 767.375 55.7727 766.398 55.7727C764.557 55.7727 762.898 56.1932 761.42 57.0341C759.966 57.8523 758.818 59.0114 757.977 60.5114C757.136 61.9886 756.716 63.7273 756.716 65.7273V93H737.898Z" fill="black"/>
<path d="M818.523 66.8182V72.9545H801.682V66.8182H818.523ZM805.193 93V65.4886C805.193 63.4659 805.574 61.7898 806.335 60.4602C807.097 59.1193 808.153 58.1193 809.506 57.4602C810.858 56.7898 812.42 56.4545 814.193 56.4545C815.352 56.4545 816.443 56.5455 817.466 56.7273C818.5 56.8977 819.267 57.0511 819.767 57.1875L818.438 63.2898C818.131 63.1875 817.756 63.1023 817.312 63.0341C816.881 62.9659 816.472 62.9318 816.085 62.9318C815.108 62.9318 814.438 63.1477 814.074 63.5795C813.71 64.0114 813.528 64.6023 813.528 65.3523V93H805.193ZM833.911 93.4943C831.161 93.4943 828.797 92.9318 826.82 91.8068C824.854 90.6705 823.337 89.0909 822.268 87.0682C821.212 85.0341 820.683 82.6761 820.683 79.9943C820.683 77.3011 821.212 74.9432 822.268 72.9205C823.337 70.8864 824.854 69.3068 826.82 68.1818C828.797 67.0455 831.161 66.4773 833.911 66.4773C836.661 66.4773 839.018 67.0455 840.984 68.1818C842.962 69.3068 844.479 70.8864 845.536 72.9205C846.604 74.9432 847.138 77.3011 847.138 79.9943C847.138 82.6761 846.604 85.0341 845.536 87.0682C844.479 89.0909 842.962 90.6705 840.984 91.8068C839.018 92.9318 836.661 93.4943 833.911 93.4943ZM833.962 87.2045C834.962 87.2045 835.808 86.8977 836.501 86.2841C837.195 85.6705 837.723 84.8182 838.087 83.7273C838.462 82.6364 838.649 81.375 838.649 79.9432C838.649 78.4886 838.462 77.2159 838.087 76.125C837.723 75.0341 837.195 74.1818 836.501 73.5682C835.808 72.9545 834.962 72.6477 833.962 72.6477C832.928 72.6477 832.053 72.9545 831.337 73.5682C830.632 74.1818 830.092 75.0341 829.717 76.125C829.354 77.2159 829.172 78.4886 829.172 79.9432C829.172 81.375 829.354 82.6364 829.717 83.7273C830.092 84.8182 830.632 85.6705 831.337 86.2841C832.053 86.8977 832.928 87.2045 833.962 87.2045ZM851.408 93V66.8182H859.504V71.5909H859.777C860.254 69.8636 861.033 68.5795 862.112 67.7386C863.192 66.8864 864.447 66.4602 865.879 66.4602C866.266 66.4602 866.663 66.4886 867.072 66.5455C867.482 66.5909 867.862 66.6648 868.214 66.767V74.0114C867.817 73.875 867.294 73.767 866.646 73.6875C866.01 73.608 865.442 73.5682 864.942 73.5682C863.953 73.5682 863.061 73.7898 862.266 74.233C861.482 74.6648 860.862 75.2727 860.408 76.0568C859.964 76.8295 859.743 77.7386 859.743 78.7841V93H851.408ZM889.44 86.1307L889.474 76.1932H890.634L897.997 66.8182H907.44L896.497 80.25H894.298L889.44 86.1307ZM881.923 93V58.0909H890.259V93H881.923ZM898.185 93L891.332 82.125L896.821 76.2102L907.815 93H898.185ZM910.423 93V66.8182H918.759V93H910.423ZM914.599 63.767C913.429 63.767 912.423 63.3807 911.582 62.608C910.741 61.8239 910.321 60.8807 910.321 59.7784C910.321 58.6875 910.741 57.7557 911.582 56.983C912.423 56.1989 913.429 55.8068 914.599 55.8068C915.781 55.8068 916.787 56.1989 917.616 56.983C918.457 57.7557 918.878 58.6875 918.878 59.7784C918.878 60.8807 918.457 61.8239 917.616 62.608C916.787 63.3807 915.781 63.767 914.599 63.767ZM932.399 78.0682V93H924.064V66.8182H931.99V71.625H932.28C932.859 70.0227 933.848 68.767 935.246 67.858C936.643 66.9375 938.308 66.4773 940.24 66.4773C942.081 66.4773 943.678 66.892 945.03 67.7216C946.393 68.5398 947.45 69.6875 948.2 71.1648C948.962 72.6307 949.337 74.3466 949.325 76.3125V93H940.99V77.9489C941.001 76.4943 940.632 75.358 939.882 74.5398C939.143 73.7216 938.115 73.3125 936.797 73.3125C935.922 73.3125 935.149 73.5057 934.479 73.892C933.82 74.267 933.308 74.8068 932.945 75.5114C932.592 76.2159 932.411 77.0682 932.399 78.0682ZM969.264 66.8182V72.9545H952.747V66.8182H969.264ZM956.207 60.5455H964.543V84.767C964.543 85.2784 964.622 85.6932 964.781 86.0114C964.952 86.3182 965.196 86.5398 965.514 86.6761C965.832 86.8011 966.213 86.8636 966.656 86.8636C966.974 86.8636 967.31 86.8352 967.662 86.7784C968.026 86.7102 968.298 86.6534 968.48 86.608L969.741 92.625C969.344 92.7386 968.781 92.8807 968.054 93.0511C967.338 93.2216 966.48 93.3295 965.48 93.375C963.526 93.4659 961.849 93.2386 960.452 92.6932C959.065 92.1364 958.003 91.2727 957.264 90.1023C956.537 88.9318 956.185 87.4602 956.207 85.6875V60.5455ZM985.457 93.4943C982.707 93.4943 980.344 92.9318 978.366 91.8068C976.401 90.6705 974.884 89.0909 973.815 87.0682C972.759 85.0341 972.23 82.6761 972.23 79.9943C972.23 77.3011 972.759 74.9432 973.815 72.9205C974.884 70.8864 976.401 69.3068 978.366 68.1818C980.344 67.0455 982.707 66.4773 985.457 66.4773C988.207 66.4773 990.565 67.0455 992.531 68.1818C994.509 69.3068 996.026 70.8864 997.082 72.9205C998.151 74.9432 998.685 77.3011 998.685 79.9943C998.685 82.6761 998.151 85.0341 997.082 87.0682C996.026 89.0909 994.509 90.6705 992.531 91.8068C990.565 92.9318 988.207 93.4943 985.457 93.4943ZM985.509 87.2045C986.509 87.2045 987.355 86.8977 988.048 86.2841C988.741 85.6705 989.27 84.8182 989.634 83.7273C990.009 82.6364 990.196 81.375 990.196 79.9432C990.196 78.4886 990.009 77.2159 989.634 76.125C989.27 75.0341 988.741 74.1818 988.048 73.5682C987.355 72.9545 986.509 72.6477 985.509 72.6477C984.474 72.6477 983.599 72.9545 982.884 73.5682C982.179 74.1818 981.639 75.0341 981.264 76.125C980.901 77.2159 980.719 78.4886 980.719 79.9432C980.719 81.375 980.901 82.6364 981.264 83.7273C981.639 84.8182 982.179 85.6705 982.884 86.2841C983.599 86.8977 984.474 87.2045 985.509 87.2045ZM1011.29 78.0682V93H1002.95V66.8182H1010.88V71.625H1011.17C1011.75 70.0227 1012.74 68.767 1014.14 67.858C1015.53 66.9375 1017.2 66.4773 1019.13 66.4773C1020.97 66.4773 1022.57 66.892 1023.92 67.7216C1025.28 68.5398 1026.34 69.6875 1027.09 71.1648C1027.85 72.6307 1028.23 74.3466 1028.22 76.3125V93H1019.88V77.9489C1019.89 76.4943 1019.52 75.358 1018.77 74.5398C1018.03 73.7216 1017.01 73.3125 1015.69 73.3125C1014.81 73.3125 1014.04 73.5057 1013.37 73.892C1012.71 74.267 1012.2 74.8068 1011.84 75.5114C1011.48 76.2159 1011.3 77.0682 1011.29 78.0682ZM1045.62 93.4943C1042.88 93.4943 1040.51 92.9545 1038.52 91.875C1036.55 90.7841 1035.02 89.233 1033.96 87.2216C1032.9 85.1989 1032.37 82.7955 1032.37 80.0114C1032.37 77.3068 1032.9 74.9432 1033.97 72.9205C1035.04 70.8864 1036.55 69.3068 1038.49 68.1818C1040.43 67.0455 1042.72 66.4773 1045.36 66.4773C1047.22 66.4773 1048.93 66.767 1050.47 67.3466C1052.02 67.9261 1053.35 68.7841 1054.48 69.9205C1055.6 71.0568 1056.48 72.4602 1057.1 74.1307C1057.73 75.7898 1058.04 77.6932 1058.04 79.8409V81.9205H1035.29V77.0795H1050.29C1050.27 76.1932 1050.06 75.4034 1049.65 74.7102C1049.25 74.017 1048.68 73.4773 1047.97 73.0909C1047.26 72.6932 1046.45 72.4943 1045.53 72.4943C1044.6 72.4943 1043.76 72.7045 1043.02 73.125C1042.29 73.5341 1041.7 74.0966 1041.27 74.8125C1040.84 75.517 1040.61 76.3182 1040.59 77.2159V82.142C1040.59 83.2102 1040.8 84.1477 1041.22 84.9545C1041.64 85.75 1042.23 86.3693 1043.01 86.8125C1043.78 87.2557 1044.7 87.4773 1045.77 87.4773C1046.51 87.4773 1047.18 87.375 1047.78 87.1705C1048.38 86.9659 1048.9 86.6648 1049.33 86.267C1049.76 85.8693 1050.09 85.3807 1050.3 84.8011L1057.96 85.0227C1057.64 86.7386 1056.94 88.233 1055.86 89.5057C1054.79 90.767 1053.39 91.75 1051.65 92.4545C1049.91 93.1477 1047.9 93.4943 1045.62 93.4943Z" fill="black"/>
</svg>
