<svg width="559" height="108" viewBox="0 0 559 108" fill="none" xmlns="http://www.w3.org/2000/svg">
<path fill-rule="evenodd" clip-rule="evenodd" d="M24.1342 7.20164C9.66793 15.9633 0 31.8526 0 50C0 65.4444 7.00245 79.2534 18.0057 88.4251L24.1342 7.20164ZM18.0804 88.4872L71.5 80L75 93L94 64L62.5 51.5L65.5 62.5L38.6396 68L42.2398 0.598594C44.7688 0.204526 47.3605 0 50 0C77.6142 0 100 22.3858 100 50C100 77.6142 77.6142 100 50 100C37.8651 100 26.7399 95.6771 18.0804 88.4872Z" fill="#00C6AE"/>
<path d="M129 62V15.4545H141.636V51.8182H160.455V62H129ZM340.062 62V15.4545H352.699V51.8182H371.517V62H340.062Z" fill="#00C6AE"/>
<path d="M182.562 62.6364C178.775 62.6364 175.532 61.8864 172.835 60.3864C170.138 58.8712 168.07 56.7652 166.631 54.0682C165.191 51.3561 164.472 48.2121 164.472 44.6364C164.472 41.0606 165.191 37.9242 166.631 35.2273C168.07 32.5152 170.138 30.4091 172.835 28.9091C175.532 27.3939 178.775 26.6364 182.562 26.6364C186.35 26.6364 189.593 27.3939 192.29 28.9091C194.987 30.4091 197.055 32.5152 198.494 35.2273C199.934 37.9242 200.653 41.0606 200.653 44.6364C200.653 48.2121 199.934 51.3561 198.494 54.0682C197.055 56.7652 194.987 58.8712 192.29 60.3864C189.593 61.8864 186.35 62.6364 182.562 62.6364ZM182.653 53.3636C183.714 53.3636 184.631 53.0076 185.403 52.2955C186.176 51.5833 186.775 50.5682 187.199 49.25C187.623 47.9318 187.835 46.3636 187.835 44.5455C187.835 42.7121 187.623 41.1439 187.199 39.8409C186.775 38.5227 186.176 37.5076 185.403 36.7955C184.631 36.0833 183.714 35.7273 182.653 35.7273C181.532 35.7273 180.57 36.0833 179.767 36.7955C178.964 37.5076 178.35 38.5227 177.926 39.8409C177.502 41.1439 177.29 42.7121 177.29 44.5455C177.29 46.3636 177.502 47.9318 177.926 49.25C178.35 50.5682 178.964 51.5833 179.767 52.2955C180.57 53.0076 181.532 53.3636 182.653 53.3636ZM222.562 62.6364C218.775 62.6364 215.532 61.8864 212.835 60.3864C210.138 58.8712 208.07 56.7652 206.631 54.0682C205.191 51.3561 204.472 48.2121 204.472 44.6364C204.472 41.0606 205.191 37.9242 206.631 35.2273C208.07 32.5152 210.138 30.4091 212.835 28.9091C215.532 27.3939 218.775 26.6364 222.562 26.6364C225.987 26.6364 228.949 27.2576 231.449 28.5C233.964 29.7273 235.911 31.4697 237.29 33.7273C238.669 35.9697 239.366 38.6061 239.381 41.6364H227.744C227.578 39.803 227.047 38.4091 226.153 37.4545C225.275 36.4848 224.138 36 222.744 36C221.653 36 220.699 36.3182 219.881 36.9545C219.063 37.5758 218.426 38.5227 217.972 39.7955C217.517 41.053 217.29 42.6364 217.29 44.5455C217.29 46.4545 217.517 48.0455 217.972 49.3182C218.426 50.5758 219.063 51.5227 219.881 52.1591C220.699 52.7803 221.653 53.0909 222.744 53.0909C223.669 53.0909 224.487 52.8788 225.199 52.4545C225.911 52.0152 226.487 51.3788 226.926 50.5455C227.381 49.697 227.653 48.6667 227.744 47.4545H239.381C239.335 50.5303 238.631 53.2121 237.267 55.5C235.903 57.7727 233.972 59.5303 231.472 60.7727C228.987 62.0152 226.017 62.6364 222.562 62.6364ZM254.284 62.5455C252.057 62.5455 250.087 62.1818 248.375 61.4545C246.678 60.7121 245.345 59.5909 244.375 58.0909C243.405 56.5909 242.92 54.6818 242.92 52.3636C242.92 50.4545 243.246 48.8258 243.898 47.4773C244.549 46.1136 245.458 45 246.625 44.1364C247.792 43.2727 249.148 42.6136 250.693 42.1591C252.254 41.7045 253.936 41.4091 255.739 41.2727C257.693 41.1212 259.261 40.9394 260.443 40.7273C261.64 40.5 262.504 40.1894 263.034 39.7955C263.564 39.3864 263.83 38.8485 263.83 38.1818V38.0909C263.83 37.1818 263.481 36.4848 262.784 36C262.087 35.5152 261.193 35.2727 260.102 35.2727C258.905 35.2727 257.928 35.5379 257.17 36.0682C256.428 36.5833 255.981 37.3788 255.83 38.4545H244.284C244.436 36.3333 245.11 34.3788 246.307 32.5909C247.519 30.7879 249.284 29.3485 251.602 28.2727C253.92 27.1818 256.814 26.6364 260.284 26.6364C262.784 26.6364 265.027 26.9318 267.011 27.5227C268.996 28.0985 270.686 28.9091 272.08 29.9545C273.473 30.9848 274.534 32.197 275.261 33.5909C276.004 34.9697 276.375 36.4697 276.375 38.0909V62H264.648V57.0909H264.375C263.678 58.3939 262.83 59.447 261.83 60.25C260.845 61.053 259.716 61.6364 258.443 62C257.186 62.3636 255.799 62.5455 254.284 62.5455ZM258.375 54.6364C259.33 54.6364 260.223 54.4394 261.057 54.0455C261.905 53.6515 262.595 53.0833 263.125 52.3409C263.655 51.5985 263.92 50.697 263.92 49.6364V46.7273C263.587 46.8636 263.231 46.9924 262.852 47.1136C262.489 47.2348 262.095 47.3485 261.67 47.4545C261.261 47.5606 260.822 47.6591 260.352 47.75C259.898 47.8409 259.42 47.9242 258.92 48C257.951 48.1515 257.155 48.4015 256.534 48.75C255.928 49.0833 255.473 49.5 255.17 50C254.883 50.4848 254.739 51.0303 254.739 51.6364C254.739 52.6061 255.08 53.3485 255.761 53.8636C256.443 54.3788 257.314 54.6364 258.375 54.6364ZM294.915 15.4545V62H282.369V15.4545H294.915ZM318.034 62.6364C314.307 62.6364 311.095 61.9242 308.398 60.5C305.716 59.0606 303.648 57 302.193 54.3182C300.754 51.6212 300.034 48.3939 300.034 44.6364C300.034 41.0303 300.761 37.8788 302.216 35.1818C303.67 32.4848 305.723 30.3864 308.375 28.8864C311.027 27.3864 314.155 26.6364 317.761 26.6364C320.398 26.6364 322.784 27.0455 324.92 27.8636C327.057 28.6818 328.883 29.8712 330.398 31.4318C331.913 32.9773 333.08 34.8561 333.898 37.0682C334.716 39.2803 335.125 41.7727 335.125 44.5455V47.4545H303.943V40.5455H323.58C323.564 39.5455 323.307 38.6667 322.807 37.9091C322.322 37.1364 321.663 36.5379 320.83 36.1136C320.011 35.6742 319.08 35.4545 318.034 35.4545C317.019 35.4545 316.087 35.6742 315.239 36.1136C314.39 36.5379 313.708 37.1288 313.193 37.8864C312.693 38.6439 312.428 39.5303 312.398 40.5455V48C312.398 49.1212 312.633 50.1212 313.102 51C313.572 51.8788 314.246 52.5682 315.125 53.0682C316.004 53.5682 317.064 53.8182 318.307 53.8182C319.17 53.8182 319.958 53.697 320.67 53.4545C321.398 53.2121 322.019 52.8636 322.534 52.4091C323.049 51.9394 323.428 51.3788 323.67 50.7273H335.125C334.731 53.1515 333.799 55.2576 332.33 57.0455C330.86 58.8182 328.913 60.197 326.489 61.1818C324.08 62.1515 321.261 62.6364 318.034 62.6364ZM393.534 62.6364C389.807 62.6364 386.595 61.9242 383.898 60.5C381.216 59.0606 379.148 57 377.693 54.3182C376.254 51.6212 375.534 48.3939 375.534 44.6364C375.534 41.0303 376.261 37.8788 377.716 35.1818C379.17 32.4848 381.223 30.3864 383.875 28.8864C386.527 27.3864 389.655 26.6364 393.261 26.6364C395.898 26.6364 398.284 27.0455 400.42 27.8636C402.557 28.6818 404.383 29.8712 405.898 31.4318C407.413 32.9773 408.58 34.8561 409.398 37.0682C410.216 39.2803 410.625 41.7727 410.625 44.5455V47.4545H379.443V40.5455H399.08C399.064 39.5455 398.807 38.6667 398.307 37.9091C397.822 37.1364 397.163 36.5379 396.33 36.1136C395.511 35.6742 394.58 35.4545 393.534 35.4545C392.519 35.4545 391.587 35.6742 390.739 36.1136C389.89 36.5379 389.208 37.1288 388.693 37.8864C388.193 38.6439 387.928 39.5303 387.898 40.5455V48C387.898 49.1212 388.133 50.1212 388.602 51C389.072 51.8788 389.746 52.5682 390.625 53.0682C391.504 53.5682 392.564 53.8182 393.807 53.8182C394.67 53.8182 395.458 53.697 396.17 53.4545C396.898 53.2121 397.519 52.8636 398.034 52.4091C398.549 51.9394 398.928 51.3788 399.17 50.7273H410.625C410.231 53.1515 409.299 55.2576 407.83 57.0455C406.36 58.8182 404.413 60.197 401.989 61.1818C399.58 62.1515 396.761 62.6364 393.534 62.6364ZM425.472 62.5455C423.244 62.5455 421.275 62.1818 419.562 61.4545C417.866 60.7121 416.532 59.5909 415.562 58.0909C414.593 56.5909 414.108 54.6818 414.108 52.3636C414.108 50.4545 414.434 48.8258 415.085 47.4773C415.737 46.1136 416.646 45 417.812 44.1364C418.979 43.2727 420.335 42.6136 421.881 42.1591C423.441 41.7045 425.123 41.4091 426.926 41.2727C428.881 41.1212 430.449 40.9394 431.631 40.7273C432.828 40.5 433.691 40.1894 434.222 39.7955C434.752 39.3864 435.017 38.8485 435.017 38.1818V38.0909C435.017 37.1818 434.669 36.4848 433.972 36C433.275 35.5152 432.381 35.2727 431.29 35.2727C430.093 35.2727 429.116 35.5379 428.358 36.0682C427.616 36.5833 427.169 37.3788 427.017 38.4545H415.472C415.623 36.3333 416.297 34.3788 417.494 32.5909C418.706 30.7879 420.472 29.3485 422.79 28.2727C425.108 27.1818 428.002 26.6364 431.472 26.6364C433.972 26.6364 436.214 26.9318 438.199 27.5227C440.184 28.0985 441.873 28.9091 443.267 29.9545C444.661 30.9848 445.722 32.197 446.449 33.5909C447.191 34.9697 447.562 36.4697 447.562 38.0909V62H435.835V57.0909H435.562C434.866 58.3939 434.017 59.447 433.017 60.25C432.032 61.053 430.903 61.6364 429.631 62C428.373 62.3636 426.987 62.5455 425.472 62.5455ZM429.562 54.6364C430.517 54.6364 431.411 54.4394 432.244 54.0455C433.093 53.6515 433.782 53.0833 434.312 52.3409C434.843 51.5985 435.108 50.697 435.108 49.6364V46.7273C434.775 46.8636 434.419 46.9924 434.04 47.1136C433.676 47.2348 433.282 47.3485 432.858 47.4545C432.449 47.5606 432.009 47.6591 431.54 47.75C431.085 47.8409 430.608 47.9242 430.108 48C429.138 48.1515 428.343 48.4015 427.722 48.75C427.116 49.0833 426.661 49.5 426.358 50C426.07 50.4848 425.926 51.0303 425.926 51.6364C425.926 52.6061 426.267 53.3485 426.949 53.8636C427.631 54.3788 428.502 54.6364 429.562 54.6364ZM453.557 75.0909V27.0909H466.011V33.1818H466.284C466.739 32 467.405 30.9167 468.284 29.9318C469.163 28.9318 470.254 28.1364 471.557 27.5455C472.86 26.9394 474.375 26.6364 476.102 26.6364C478.405 26.6364 480.595 27.25 482.67 28.4773C484.761 29.7045 486.458 31.6364 487.761 34.2727C489.08 36.9091 489.739 40.3333 489.739 44.5455C489.739 48.5758 489.11 51.9167 487.852 54.5682C486.61 57.2197 484.943 59.197 482.852 60.5C480.777 61.803 478.496 62.4545 476.011 62.4545C474.375 62.4545 472.913 62.1894 471.625 61.6591C470.352 61.1136 469.261 60.3788 468.352 59.4545C467.458 58.5152 466.769 57.4545 466.284 56.2727H466.102V75.0909H453.557ZM465.83 44.5455C465.83 46.2424 466.049 47.7121 466.489 48.9545C466.943 50.1818 467.58 51.1364 468.398 51.8182C469.231 52.4848 470.223 52.8182 471.375 52.8182C472.527 52.8182 473.504 52.4924 474.307 51.8409C475.125 51.1742 475.746 50.2273 476.17 49C476.61 47.7576 476.83 46.2727 476.83 44.5455C476.83 42.8182 476.61 41.3409 476.17 40.1136C475.746 38.8712 475.125 37.9242 474.307 37.2727C473.504 36.6061 472.527 36.2727 471.375 36.2727C470.223 36.2727 469.231 36.6061 468.398 37.2727C467.58 37.9242 466.943 38.8712 466.489 40.1136C466.049 41.3409 465.83 42.8182 465.83 44.5455ZM511.722 62.6364C507.994 62.6364 504.782 61.9242 502.085 60.5C499.403 59.0606 497.335 57 495.881 54.3182C494.441 51.6212 493.722 48.3939 493.722 44.6364C493.722 41.0303 494.449 37.8788 495.903 35.1818C497.358 32.4848 499.411 30.3864 502.062 28.8864C504.714 27.3864 507.843 26.6364 511.449 26.6364C514.085 26.6364 516.472 27.0455 518.608 27.8636C520.744 28.6818 522.57 29.8712 524.085 31.4318C525.6 32.9773 526.767 34.8561 527.585 37.0682C528.403 39.2803 528.812 41.7727 528.812 44.5455V47.4545H497.631V40.5455H517.267C517.252 39.5455 516.994 38.6667 516.494 37.9091C516.009 37.1364 515.35 36.5379 514.517 36.1136C513.699 35.6742 512.767 35.4545 511.722 35.4545C510.706 35.4545 509.775 35.6742 508.926 36.1136C508.078 36.5379 507.396 37.1288 506.881 37.8864C506.381 38.6439 506.116 39.5303 506.085 40.5455V48C506.085 49.1212 506.32 50.1212 506.79 51C507.259 51.8788 507.934 52.5682 508.812 53.0682C509.691 53.5682 510.752 53.8182 511.994 53.8182C512.858 53.8182 513.646 53.697 514.358 53.4545C515.085 53.2121 515.706 52.8636 516.222 52.4091C516.737 51.9394 517.116 51.3788 517.358 50.7273H528.812C528.419 53.1515 527.487 55.2576 526.017 57.0455C524.547 58.8182 522.6 60.197 520.176 61.1818C517.767 62.1515 514.949 62.6364 511.722 62.6364ZM533.932 62V27.0909H546.114V33.7273H546.477C547.114 31.2727 548.121 29.4773 549.5 28.3409C550.894 27.2045 552.523 26.6364 554.386 26.6364C554.932 26.6364 555.47 26.6818 556 26.7727C556.545 26.8485 557.068 26.9621 557.568 27.1136V37.8182C556.947 37.6061 556.182 37.447 555.273 37.3409C554.364 37.2348 553.583 37.1818 552.932 37.1818C551.705 37.1818 550.598 37.4621 549.614 38.0227C548.644 38.5682 547.879 39.3409 547.318 40.3409C546.758 41.3258 546.477 42.4848 546.477 43.8182V62H533.932Z" fill="black"/>
<path d="M266.682 82.5455V86.6364H255.455V82.5455H266.682ZM257.795 100V81.6591C257.795 80.3106 258.049 79.1932 258.557 78.3068C259.064 77.4129 259.769 76.7462 260.67 76.3068C261.572 75.8598 262.614 75.6364 263.795 75.6364C264.568 75.6364 265.295 75.697 265.977 75.8182C266.667 75.9318 267.178 76.0341 267.511 76.125L266.625 80.1932C266.42 80.125 266.17 80.0682 265.875 80.0227C265.587 79.9773 265.314 79.9545 265.057 79.9545C264.405 79.9545 263.958 80.0985 263.716 80.3864C263.473 80.6742 263.352 81.0682 263.352 81.5682V100H257.795ZM276.94 100.33C275.107 100.33 273.531 99.9545 272.213 99.2045C270.902 98.447 269.891 97.3939 269.179 96.0455C268.474 94.6894 268.122 93.1174 268.122 91.3295C268.122 89.5341 268.474 87.9621 269.179 86.6136C269.891 85.2576 270.902 84.2045 272.213 83.4545C273.531 82.697 275.107 82.3182 276.94 82.3182C278.774 82.3182 280.346 82.697 281.656 83.4545C282.974 84.2045 283.986 85.2576 284.69 86.6136C285.402 87.9621 285.759 89.5341 285.759 91.3295C285.759 93.1174 285.402 94.6894 284.69 96.0455C283.986 97.3939 282.974 98.447 281.656 99.2045C280.346 99.9545 278.774 100.33 276.94 100.33ZM276.974 96.1364C277.641 96.1364 278.205 95.9318 278.668 95.5227C279.13 95.1136 279.482 94.5455 279.724 93.8182C279.974 93.0909 280.099 92.25 280.099 91.2955C280.099 90.3258 279.974 89.4773 279.724 88.75C279.482 88.0227 279.13 87.4545 278.668 87.0455C278.205 86.6364 277.641 86.4318 276.974 86.4318C276.285 86.4318 275.702 86.6364 275.224 87.0455C274.755 87.4545 274.395 88.0227 274.145 88.75C273.902 89.4773 273.781 90.3258 273.781 91.2955C273.781 92.25 273.902 93.0909 274.145 93.8182C274.395 94.5455 274.755 95.1136 275.224 95.5227C275.702 95.9318 276.285 96.1364 276.974 96.1364ZM288.605 100V82.5455H294.003V85.7273H294.185C294.503 84.5758 295.022 83.7197 295.741 83.1591C296.461 82.5909 297.298 82.3068 298.253 82.3068C298.51 82.3068 298.776 82.3258 299.048 82.3636C299.321 82.3939 299.575 82.4432 299.81 82.5114V87.3409C299.545 87.25 299.196 87.178 298.764 87.125C298.34 87.072 297.961 87.0455 297.628 87.0455C296.969 87.0455 296.374 87.1932 295.844 87.4886C295.321 87.7765 294.908 88.1818 294.605 88.7045C294.31 89.2197 294.162 89.8258 294.162 90.5227V100H288.605ZM313.96 95.4205L313.983 88.7955H314.756L319.665 82.5455H325.96L318.665 91.5H317.199L313.96 95.4205ZM308.949 100V76.7273H314.506V100H308.949ZM319.79 100L315.222 92.75L318.881 88.8068L326.21 100H319.79ZM327.949 100V82.5455H333.506V100H327.949ZM330.733 80.5114C329.953 80.5114 329.282 80.2538 328.722 79.7386C328.161 79.2159 327.881 78.5871 327.881 77.8523C327.881 77.125 328.161 76.5038 328.722 75.9886C329.282 75.4659 329.953 75.2045 330.733 75.2045C331.521 75.2045 332.191 75.4659 332.744 75.9886C333.305 76.5038 333.585 77.125 333.585 77.8523C333.585 78.5871 333.305 79.2159 332.744 79.7386C332.191 80.2538 331.521 80.5114 330.733 80.5114ZM342.599 90.0455V100H337.043V82.5455H342.327V85.75H342.52C342.906 84.6818 343.565 83.8447 344.497 83.2386C345.429 82.625 346.539 82.3182 347.827 82.3182C349.054 82.3182 350.118 82.5947 351.02 83.1477C351.929 83.6932 352.634 84.4583 353.134 85.4432C353.641 86.4205 353.891 87.5644 353.884 88.875V100H348.327V89.9659C348.334 88.9962 348.088 88.2386 347.588 87.6932C347.096 87.1477 346.41 86.875 345.531 86.875C344.948 86.875 344.433 87.0038 343.986 87.2614C343.546 87.5114 343.205 87.8712 342.963 88.3409C342.728 88.8106 342.607 89.3788 342.599 90.0455ZM367.176 82.5455V86.6364H356.165V82.5455H367.176ZM358.472 78.3636H364.028V94.5114C364.028 94.8523 364.081 95.1288 364.188 95.3409C364.301 95.5455 364.464 95.6932 364.676 95.7841C364.888 95.8674 365.142 95.9091 365.438 95.9091C365.65 95.9091 365.873 95.8902 366.108 95.8523C366.35 95.8068 366.532 95.7689 366.653 95.7386L367.494 99.75C367.229 99.8258 366.854 99.9205 366.369 100.034C365.892 100.148 365.32 100.22 364.653 100.25C363.35 100.311 362.233 100.159 361.301 99.7955C360.377 99.4242 359.669 98.8485 359.176 98.0682C358.691 97.2879 358.456 96.3068 358.472 95.125V78.3636ZM377.972 100.33C376.138 100.33 374.563 99.9545 373.244 99.2045C371.934 98.447 370.922 97.3939 370.21 96.0455C369.506 94.6894 369.153 93.1174 369.153 91.3295C369.153 89.5341 369.506 87.9621 370.21 86.6136C370.922 85.2576 371.934 84.2045 373.244 83.4545C374.563 82.697 376.138 82.3182 377.972 82.3182C379.805 82.3182 381.377 82.697 382.688 83.4545C384.006 84.2045 385.017 85.2576 385.722 86.6136C386.434 87.9621 386.79 89.5341 386.79 91.3295C386.79 93.1174 386.434 94.6894 385.722 96.0455C385.017 97.3939 384.006 98.447 382.688 99.2045C381.377 99.9545 379.805 100.33 377.972 100.33ZM378.006 96.1364C378.672 96.1364 379.237 95.9318 379.699 95.5227C380.161 95.1136 380.513 94.5455 380.756 93.8182C381.006 93.0909 381.131 92.25 381.131 91.2955C381.131 90.3258 381.006 89.4773 380.756 88.75C380.513 88.0227 380.161 87.4545 379.699 87.0455C379.237 86.6364 378.672 86.4318 378.006 86.4318C377.316 86.4318 376.733 86.6364 376.256 87.0455C375.786 87.4545 375.426 88.0227 375.176 88.75C374.934 89.4773 374.812 90.3258 374.812 91.2955C374.812 92.25 374.934 93.0909 375.176 93.8182C375.426 94.5455 375.786 95.1136 376.256 95.5227C376.733 95.9318 377.316 96.1364 378.006 96.1364ZM395.193 90.0455V100H389.636V82.5455H394.92V85.75H395.114C395.5 84.6818 396.159 83.8447 397.091 83.2386C398.023 82.625 399.133 82.3182 400.42 82.3182C401.648 82.3182 402.712 82.5947 403.614 83.1477C404.523 83.6932 405.227 84.4583 405.727 85.4432C406.235 86.4205 406.485 87.5644 406.477 88.875V100H400.92V89.9659C400.928 88.9962 400.682 88.2386 400.182 87.6932C399.689 87.1477 399.004 86.875 398.125 86.875C397.542 86.875 397.027 87.0038 396.58 87.2614C396.14 87.5114 395.799 87.8712 395.557 88.3409C395.322 88.8106 395.201 89.3788 395.193 90.0455ZM418.077 100.33C416.251 100.33 414.675 99.9697 413.349 99.25C412.031 98.5227 411.016 97.4886 410.304 96.1477C409.599 94.7992 409.247 93.197 409.247 91.3409C409.247 89.5379 409.603 87.9621 410.315 86.6136C411.027 85.2576 412.031 84.2045 413.327 83.4545C414.622 82.697 416.149 82.3182 417.906 82.3182C419.149 82.3182 420.285 82.5114 421.315 82.8977C422.346 83.2841 423.236 83.8561 423.986 84.6136C424.736 85.3712 425.319 86.3068 425.736 87.4205C426.152 88.5265 426.361 89.7955 426.361 91.2273V92.6136H411.19V89.3864H421.19C421.183 88.7955 421.043 88.2689 420.77 87.8068C420.497 87.3447 420.122 86.9848 419.645 86.7273C419.175 86.4621 418.634 86.3295 418.02 86.3295C417.399 86.3295 416.842 86.4697 416.349 86.75C415.857 87.0227 415.467 87.3977 415.179 87.875C414.891 88.3447 414.74 88.8788 414.724 89.4773V92.7614C414.724 93.4735 414.865 94.0985 415.145 94.6364C415.425 95.1667 415.823 95.5795 416.338 95.875C416.853 96.1705 417.467 96.3182 418.179 96.3182C418.671 96.3182 419.118 96.25 419.52 96.1136C419.921 95.9773 420.266 95.7765 420.554 95.5114C420.842 95.2462 421.058 94.9205 421.202 94.5341L426.304 94.6818C426.092 95.8258 425.626 96.822 424.906 97.6705C424.194 98.5114 423.259 99.1667 422.099 99.6364C420.94 100.098 419.599 100.33 418.077 100.33Z" fill="black"/>
</svg>
