<svg width="440" height="280" viewBox="0 0 440 280" fill="none" xmlns="http://www.w3.org/2000/svg">
<rect width="440" height="280" fill="#F9F9F9"/>
<rect width="440" height="280" fill="url(#paint0_linear_20_17)" fill-opacity="0.2"/>
<path fill-rule="evenodd" clip-rule="evenodd" d="M186.374 31.3621C167.568 42.7523 155 63.4084 155 87C155 107.078 164.103 125.029 178.407 136.953L186.374 31.3621ZM178.504 137.033L247.95 126L252.5 142.9L277.2 105.2L236.25 88.95L240.15 103.25L205.231 110.4L209.912 22.7782C213.199 22.2659 216.569 22 220 22C255.899 22 285 51.1015 285 87C285 122.899 255.899 152 220 152C204.225 152 189.762 146.38 178.504 137.033Z" fill="#00C6AE"/>
<path d="M59.5625 212V177.091H69.0398V204.364H83.1534V212H59.5625ZM217.859 212V177.091H227.337V204.364H241.45V212H217.859Z" fill="#00C6AE"/>
<path d="M99.7344 212.477C96.8935 212.477 94.4616 211.915 92.4389 210.79C90.4162 209.653 88.8651 208.074 87.7855 206.051C86.706 204.017 86.1662 201.659 86.1662 198.977C86.1662 196.295 86.706 193.943 87.7855 191.92C88.8651 189.886 90.4162 188.307 92.4389 187.182C94.4616 186.045 96.8935 185.477 99.7344 185.477C102.575 185.477 105.007 186.045 107.03 187.182C109.053 188.307 110.604 189.886 111.683 191.92C112.763 193.943 113.303 196.295 113.303 198.977C113.303 201.659 112.763 204.017 111.683 206.051C110.604 208.074 109.053 209.653 107.03 210.79C105.007 211.915 102.575 212.477 99.7344 212.477ZM99.8026 205.523C100.598 205.523 101.286 205.256 101.865 204.722C102.445 204.187 102.893 203.426 103.212 202.438C103.53 201.449 103.689 200.273 103.689 198.909C103.689 197.534 103.53 196.358 103.212 195.381C102.893 194.392 102.445 193.631 101.865 193.097C101.286 192.562 100.598 192.295 99.8026 192.295C98.9616 192.295 98.2401 192.562 97.6378 193.097C97.0355 193.631 96.5753 194.392 96.2571 195.381C95.9389 196.358 95.7798 197.534 95.7798 198.909C95.7798 200.273 95.9389 201.449 96.2571 202.438C96.5753 203.426 97.0355 204.187 97.6378 204.722C98.2401 205.256 98.9616 205.523 99.8026 205.523ZM129.734 212.477C126.893 212.477 124.462 211.915 122.439 210.79C120.416 209.653 118.865 208.074 117.786 206.051C116.706 204.017 116.166 201.659 116.166 198.977C116.166 196.295 116.706 193.943 117.786 191.92C118.865 189.886 120.416 188.307 122.439 187.182C124.462 186.045 126.893 185.477 129.734 185.477C132.303 185.477 134.524 185.943 136.399 186.875C138.286 187.795 139.746 189.102 140.78 190.795C141.814 192.477 142.337 194.455 142.348 196.727H133.621C133.496 195.352 133.098 194.307 132.428 193.591C131.768 192.864 130.916 192.5 129.871 192.5C129.053 192.5 128.337 192.739 127.723 193.216C127.109 193.682 126.632 194.392 126.291 195.347C125.95 196.29 125.78 197.477 125.78 198.909C125.78 200.341 125.95 201.534 126.291 202.489C126.632 203.432 127.109 204.142 127.723 204.619C128.337 205.085 129.053 205.318 129.871 205.318C130.564 205.318 131.178 205.159 131.712 204.841C132.246 204.511 132.678 204.034 133.007 203.409C133.348 202.773 133.553 202 133.621 201.091H142.348C142.314 203.398 141.786 205.409 140.763 207.125C139.74 208.83 138.291 210.148 136.416 211.08C134.553 212.011 132.325 212.477 129.734 212.477ZM153.526 212.409C151.855 212.409 150.378 212.136 149.094 211.591C147.821 211.034 146.821 210.193 146.094 209.068C145.366 207.943 145.003 206.511 145.003 204.773C145.003 203.341 145.247 202.119 145.736 201.108C146.224 200.085 146.906 199.25 147.781 198.602C148.656 197.955 149.673 197.46 150.832 197.119C152.003 196.778 153.264 196.557 154.616 196.455C156.082 196.341 157.259 196.205 158.145 196.045C159.043 195.875 159.69 195.642 160.088 195.347C160.486 195.04 160.685 194.636 160.685 194.136V194.068C160.685 193.386 160.423 192.864 159.901 192.5C159.378 192.136 158.707 191.955 157.889 191.955C156.991 191.955 156.259 192.153 155.69 192.551C155.134 192.937 154.798 193.534 154.685 194.341H146.026C146.139 192.75 146.645 191.284 147.543 189.943C148.452 188.591 149.776 187.511 151.514 186.705C153.253 185.886 155.423 185.477 158.026 185.477C159.901 185.477 161.582 185.699 163.071 186.142C164.56 186.574 165.827 187.182 166.872 187.966C167.918 188.739 168.713 189.648 169.259 190.693C169.815 191.727 170.094 192.852 170.094 194.068V212H161.298V208.318H161.094C160.571 209.295 159.935 210.085 159.185 210.688C158.446 211.29 157.599 211.727 156.645 212C155.702 212.273 154.662 212.409 153.526 212.409ZM156.594 206.477C157.31 206.477 157.98 206.33 158.605 206.034C159.241 205.739 159.759 205.312 160.156 204.756C160.554 204.199 160.753 203.523 160.753 202.727V200.545C160.503 200.648 160.236 200.744 159.952 200.835C159.679 200.926 159.384 201.011 159.065 201.091C158.759 201.17 158.429 201.244 158.077 201.312C157.736 201.381 157.378 201.443 157.003 201.5C156.276 201.614 155.679 201.801 155.213 202.062C154.759 202.312 154.418 202.625 154.19 203C153.974 203.364 153.866 203.773 153.866 204.227C153.866 204.955 154.122 205.511 154.634 205.898C155.145 206.284 155.798 206.477 156.594 206.477ZM183.999 177.091V212H174.589V177.091H183.999ZM201.338 212.477C198.543 212.477 196.134 211.943 194.111 210.875C192.099 209.795 190.548 208.25 189.457 206.239C188.378 204.216 187.838 201.795 187.838 198.977C187.838 196.273 188.384 193.909 189.474 191.886C190.565 189.864 192.105 188.29 194.094 187.165C196.082 186.04 198.429 185.477 201.134 185.477C203.111 185.477 204.901 185.784 206.503 186.398C208.105 187.011 209.474 187.903 210.611 189.074C211.747 190.233 212.622 191.642 213.236 193.301C213.849 194.96 214.156 196.83 214.156 198.909V201.091H190.77V195.909H205.497C205.486 195.159 205.293 194.5 204.918 193.932C204.554 193.352 204.06 192.903 203.435 192.585C202.821 192.256 202.122 192.091 201.338 192.091C200.577 192.091 199.878 192.256 199.241 192.585C198.605 192.903 198.094 193.347 197.707 193.915C197.332 194.483 197.134 195.148 197.111 195.909V201.5C197.111 202.341 197.287 203.091 197.639 203.75C197.991 204.409 198.497 204.926 199.156 205.301C199.815 205.676 200.611 205.864 201.543 205.864C202.19 205.864 202.781 205.773 203.315 205.591C203.861 205.409 204.327 205.148 204.713 204.807C205.099 204.455 205.384 204.034 205.565 203.545H214.156C213.861 205.364 213.162 206.943 212.06 208.284C210.957 209.614 209.497 210.648 207.679 211.386C205.872 212.114 203.759 212.477 201.338 212.477ZM257.963 212.477C255.168 212.477 252.759 211.943 250.736 210.875C248.724 209.795 247.173 208.25 246.082 206.239C245.003 204.216 244.463 201.795 244.463 198.977C244.463 196.273 245.009 193.909 246.099 191.886C247.19 189.864 248.73 188.29 250.719 187.165C252.707 186.04 255.054 185.477 257.759 185.477C259.736 185.477 261.526 185.784 263.128 186.398C264.73 187.011 266.099 187.903 267.236 189.074C268.372 190.233 269.247 191.642 269.861 193.301C270.474 194.96 270.781 196.83 270.781 198.909V201.091H247.395V195.909H262.122C262.111 195.159 261.918 194.5 261.543 193.932C261.179 193.352 260.685 192.903 260.06 192.585C259.446 192.256 258.747 192.091 257.963 192.091C257.202 192.091 256.503 192.256 255.866 192.585C255.23 192.903 254.719 193.347 254.332 193.915C253.957 194.483 253.759 195.148 253.736 195.909V201.5C253.736 202.341 253.912 203.091 254.264 203.75C254.616 204.409 255.122 204.926 255.781 205.301C256.44 205.676 257.236 205.864 258.168 205.864C258.815 205.864 259.406 205.773 259.94 205.591C260.486 205.409 260.952 205.148 261.338 204.807C261.724 204.455 262.009 204.034 262.19 203.545H270.781C270.486 205.364 269.787 206.943 268.685 208.284C267.582 209.614 266.122 210.648 264.304 211.386C262.497 212.114 260.384 212.477 257.963 212.477ZM281.916 212.409C280.246 212.409 278.768 212.136 277.484 211.591C276.212 211.034 275.212 210.193 274.484 209.068C273.757 207.943 273.393 206.511 273.393 204.773C273.393 203.341 273.638 202.119 274.126 201.108C274.615 200.085 275.297 199.25 276.172 198.602C277.047 197.955 278.064 197.46 279.223 197.119C280.393 196.778 281.655 196.557 283.007 196.455C284.473 196.341 285.649 196.205 286.536 196.045C287.433 195.875 288.081 195.642 288.479 195.347C288.876 195.04 289.075 194.636 289.075 194.136V194.068C289.075 193.386 288.814 192.864 288.291 192.5C287.768 192.136 287.098 191.955 286.28 191.955C285.382 191.955 284.649 192.153 284.081 192.551C283.524 192.937 283.189 193.534 283.075 194.341H274.416C274.53 192.75 275.036 191.284 275.933 189.943C276.842 188.591 278.166 187.511 279.905 186.705C281.643 185.886 283.814 185.477 286.416 185.477C288.291 185.477 289.973 185.699 291.462 186.142C292.95 186.574 294.217 187.182 295.263 187.966C296.308 188.739 297.104 189.648 297.649 190.693C298.206 191.727 298.484 192.852 298.484 194.068V212H289.689V208.318H289.484C288.962 209.295 288.325 210.085 287.575 210.688C286.837 211.29 285.99 211.727 285.036 212C284.092 212.273 283.053 212.409 281.916 212.409ZM284.984 206.477C285.7 206.477 286.371 206.33 286.996 206.034C287.632 205.739 288.149 205.312 288.547 204.756C288.945 204.199 289.143 203.523 289.143 202.727V200.545C288.893 200.648 288.626 200.744 288.342 200.835C288.07 200.926 287.774 201.011 287.456 201.091C287.149 201.17 286.82 201.244 286.467 201.312C286.126 201.381 285.768 201.443 285.393 201.5C284.666 201.614 284.07 201.801 283.604 202.062C283.149 202.312 282.808 202.625 282.581 203C282.365 203.364 282.257 203.773 282.257 204.227C282.257 204.955 282.513 205.511 283.024 205.898C283.536 206.284 284.189 206.477 284.984 206.477ZM302.98 221.818V185.818H312.321V190.386H312.526C312.866 189.5 313.366 188.687 314.026 187.949C314.685 187.199 315.503 186.602 316.48 186.159C317.457 185.705 318.594 185.477 319.889 185.477C321.616 185.477 323.259 185.938 324.815 186.858C326.384 187.778 327.656 189.227 328.634 191.205C329.622 193.182 330.116 195.75 330.116 198.909C330.116 201.932 329.645 204.437 328.702 206.426C327.77 208.415 326.52 209.898 324.952 210.875C323.395 211.852 321.685 212.341 319.821 212.341C318.594 212.341 317.497 212.142 316.531 211.744C315.577 211.335 314.759 210.784 314.077 210.091C313.406 209.386 312.889 208.591 312.526 207.705H312.389V221.818H302.98ZM312.185 198.909C312.185 200.182 312.349 201.284 312.679 202.216C313.02 203.136 313.497 203.852 314.111 204.364C314.736 204.864 315.48 205.114 316.344 205.114C317.207 205.114 317.94 204.869 318.543 204.381C319.156 203.881 319.622 203.17 319.94 202.25C320.27 201.318 320.435 200.205 320.435 198.909C320.435 197.614 320.27 196.506 319.94 195.585C319.622 194.653 319.156 193.943 318.543 193.455C317.94 192.955 317.207 192.705 316.344 192.705C315.48 192.705 314.736 192.955 314.111 193.455C313.497 193.943 313.02 194.653 312.679 195.585C312.349 196.506 312.185 197.614 312.185 198.909ZM346.604 212.477C343.808 212.477 341.399 211.943 339.376 210.875C337.365 209.795 335.814 208.25 334.723 206.239C333.643 204.216 333.104 201.795 333.104 198.977C333.104 196.273 333.649 193.909 334.74 191.886C335.831 189.864 337.371 188.29 339.359 187.165C341.348 186.04 343.695 185.477 346.399 185.477C348.376 185.477 350.166 185.784 351.768 186.398C353.371 187.011 354.74 187.903 355.876 189.074C357.013 190.233 357.888 191.642 358.501 193.301C359.115 194.96 359.422 196.83 359.422 198.909V201.091H336.036V195.909H350.763C350.751 195.159 350.558 194.5 350.183 193.932C349.82 193.352 349.325 192.903 348.7 192.585C348.087 192.256 347.388 192.091 346.604 192.091C345.842 192.091 345.143 192.256 344.507 192.585C343.871 192.903 343.359 193.347 342.973 193.915C342.598 194.483 342.399 195.148 342.376 195.909V201.5C342.376 202.341 342.553 203.091 342.905 203.75C343.257 204.409 343.763 204.926 344.422 205.301C345.081 205.676 345.876 205.864 346.808 205.864C347.456 205.864 348.047 205.773 348.581 205.591C349.126 205.409 349.592 205.148 349.979 204.807C350.365 204.455 350.649 204.034 350.831 203.545H359.422C359.126 205.364 358.428 206.943 357.325 208.284C356.223 209.614 354.763 210.648 352.945 211.386C351.138 212.114 349.024 212.477 346.604 212.477ZM363.261 212V185.818H372.398V190.795H372.67C373.148 188.955 373.903 187.608 374.938 186.756C375.983 185.903 377.205 185.477 378.602 185.477C379.011 185.477 379.415 185.511 379.812 185.58C380.222 185.636 380.614 185.722 380.989 185.835V193.864C380.523 193.705 379.949 193.585 379.267 193.506C378.585 193.426 378 193.386 377.511 193.386C376.591 193.386 375.761 193.597 375.023 194.017C374.295 194.426 373.722 195.006 373.301 195.756C372.881 196.494 372.67 197.364 372.67 198.364V212H363.261Z" fill="black"/>
<path d="M164.097 233.909V236.977H155.677V233.909H164.097ZM157.433 247V233.244C157.433 232.233 157.623 231.395 158.004 230.73C158.384 230.06 158.913 229.56 159.589 229.23C160.265 228.895 161.046 228.727 161.933 228.727C162.512 228.727 163.058 228.773 163.569 228.864C164.086 228.949 164.469 229.026 164.719 229.094L164.055 232.145C163.901 232.094 163.714 232.051 163.492 232.017C163.276 231.983 163.072 231.966 162.879 231.966C162.39 231.966 162.055 232.074 161.873 232.29C161.691 232.506 161.6 232.801 161.6 233.176V247H157.433ZM171.791 247.247C170.416 247.247 169.234 246.966 168.246 246.403C167.263 245.835 166.504 245.045 165.97 244.034C165.442 243.017 165.178 241.838 165.178 240.497C165.178 239.151 165.442 237.972 165.97 236.96C166.504 235.943 167.263 235.153 168.246 234.591C169.234 234.023 170.416 233.739 171.791 233.739C173.166 233.739 174.345 234.023 175.328 234.591C176.317 235.153 177.075 235.943 177.604 236.96C178.138 237.972 178.405 239.151 178.405 240.497C178.405 241.838 178.138 243.017 177.604 244.034C177.075 245.045 176.317 245.835 175.328 246.403C174.345 246.966 173.166 247.247 171.791 247.247ZM171.817 244.102C172.317 244.102 172.74 243.949 173.087 243.642C173.433 243.335 173.697 242.909 173.879 242.364C174.067 241.818 174.161 241.187 174.161 240.472C174.161 239.744 174.067 239.108 173.879 238.562C173.697 238.017 173.433 237.591 173.087 237.284C172.74 236.977 172.317 236.824 171.817 236.824C171.3 236.824 170.862 236.977 170.504 237.284C170.152 237.591 169.882 238.017 169.695 238.562C169.513 239.108 169.422 239.744 169.422 240.472C169.422 241.187 169.513 241.818 169.695 242.364C169.882 242.909 170.152 243.335 170.504 243.642C170.862 243.949 171.3 244.102 171.817 244.102ZM180.54 247V233.909H184.588V236.295H184.724C184.963 235.432 185.352 234.79 185.892 234.369C186.432 233.943 187.06 233.73 187.776 233.73C187.969 233.73 188.168 233.744 188.372 233.773C188.577 233.795 188.767 233.832 188.943 233.884V237.506C188.744 237.437 188.483 237.384 188.159 237.344C187.841 237.304 187.557 237.284 187.307 237.284C186.813 237.284 186.366 237.395 185.969 237.616C185.577 237.832 185.267 238.136 185.04 238.528C184.818 238.915 184.707 239.369 184.707 239.892V247H180.54ZM199.556 243.565L199.573 238.597H200.153L203.835 233.909H208.556L203.085 240.625H201.985L199.556 243.565ZM195.798 247V229.545H199.965V247H195.798ZM203.928 247L200.502 241.562L203.246 238.605L208.744 247H203.928ZM210.048 247V233.909H214.215V247H210.048ZM212.136 232.384C211.55 232.384 211.048 232.19 210.627 231.804C210.207 231.412 209.996 230.94 209.996 230.389C209.996 229.844 210.207 229.378 210.627 228.991C211.048 228.599 211.55 228.403 212.136 228.403C212.727 228.403 213.229 228.599 213.644 228.991C214.065 229.378 214.275 229.844 214.275 230.389C214.275 230.94 214.065 231.412 213.644 231.804C213.229 232.19 212.727 232.384 212.136 232.384ZM221.036 239.534V247H216.868V233.909H220.831V236.312H220.976C221.266 235.511 221.76 234.884 222.459 234.429C223.158 233.969 223.99 233.739 224.956 233.739C225.876 233.739 226.675 233.946 227.351 234.361C228.033 234.77 228.561 235.344 228.936 236.082C229.317 236.815 229.504 237.673 229.499 238.656V247H225.331V239.474C225.337 238.747 225.152 238.179 224.777 237.77C224.408 237.361 223.893 237.156 223.234 237.156C222.797 237.156 222.411 237.253 222.075 237.446C221.746 237.634 221.49 237.903 221.308 238.256C221.132 238.608 221.041 239.034 221.036 239.534ZM239.468 233.909V236.977H231.21V233.909H239.468ZM232.94 230.773H237.107V242.884C237.107 243.139 237.147 243.347 237.227 243.506C237.312 243.659 237.434 243.77 237.593 243.838C237.752 243.901 237.942 243.932 238.164 243.932C238.323 243.932 238.491 243.918 238.667 243.889C238.849 243.855 238.985 243.827 239.076 243.804L239.707 246.812C239.508 246.869 239.227 246.94 238.863 247.026C238.505 247.111 238.076 247.165 237.576 247.188C236.599 247.233 235.761 247.119 235.062 246.847C234.369 246.568 233.837 246.136 233.468 245.551C233.104 244.966 232.928 244.23 232.94 243.344V230.773ZM247.565 247.247C246.19 247.247 245.008 246.966 244.019 246.403C243.036 245.835 242.278 245.045 241.744 244.034C241.215 243.017 240.951 241.838 240.951 240.497C240.951 239.151 241.215 237.972 241.744 236.96C242.278 235.943 243.036 235.153 244.019 234.591C245.008 234.023 246.19 233.739 247.565 233.739C248.94 233.739 250.119 234.023 251.102 234.591C252.09 235.153 252.849 235.943 253.377 236.96C253.911 237.972 254.178 239.151 254.178 240.497C254.178 241.838 253.911 243.017 253.377 244.034C252.849 245.045 252.09 245.835 251.102 246.403C250.119 246.966 248.94 247.247 247.565 247.247ZM247.59 244.102C248.09 244.102 248.513 243.949 248.86 243.642C249.207 243.335 249.471 242.909 249.653 242.364C249.84 241.818 249.934 241.187 249.934 240.472C249.934 239.744 249.84 239.108 249.653 238.562C249.471 238.017 249.207 237.591 248.86 237.284C248.513 236.977 248.09 236.824 247.59 236.824C247.073 236.824 246.636 236.977 246.278 237.284C245.925 237.591 245.656 238.017 245.468 238.562C245.286 239.108 245.195 239.744 245.195 240.472C245.195 241.187 245.286 241.818 245.468 242.364C245.656 242.909 245.925 243.335 246.278 243.642C246.636 243.949 247.073 244.102 247.59 244.102ZM260.481 239.534V247H256.313V233.909H260.276V236.312H260.421C260.711 235.511 261.205 234.884 261.904 234.429C262.603 233.969 263.435 233.739 264.401 233.739C265.322 233.739 266.12 233.946 266.796 234.361C267.478 234.77 268.006 235.344 268.381 236.082C268.762 236.815 268.95 237.673 268.944 238.656V247H264.776V239.474C264.782 238.747 264.597 238.179 264.222 237.77C263.853 237.361 263.339 237.156 262.68 237.156C262.242 237.156 261.856 237.253 261.521 237.446C261.191 237.634 260.935 237.903 260.754 238.256C260.577 238.608 260.487 239.034 260.481 239.534ZM277.643 247.247C276.274 247.247 275.092 246.977 274.098 246.438C273.109 245.892 272.348 245.116 271.814 244.111C271.286 243.099 271.021 241.898 271.021 240.506C271.021 239.153 271.288 237.972 271.822 236.96C272.357 235.943 273.109 235.153 274.081 234.591C275.053 234.023 276.197 233.739 277.516 233.739C278.447 233.739 279.3 233.884 280.072 234.173C280.845 234.463 281.513 234.892 282.075 235.46C282.638 236.028 283.075 236.73 283.388 237.565C283.7 238.395 283.857 239.347 283.857 240.42V241.46H272.479V239.04H279.979C279.973 238.597 279.868 238.202 279.663 237.855C279.459 237.509 279.178 237.239 278.82 237.045C278.467 236.847 278.061 236.747 277.601 236.747C277.135 236.747 276.717 236.852 276.348 237.062C275.979 237.267 275.686 237.548 275.47 237.906C275.254 238.259 275.141 238.659 275.129 239.108V241.571C275.129 242.105 275.234 242.574 275.445 242.977C275.655 243.375 275.953 243.685 276.339 243.906C276.726 244.128 277.186 244.239 277.72 244.239C278.089 244.239 278.425 244.187 278.726 244.085C279.027 243.983 279.286 243.832 279.501 243.634C279.717 243.435 279.879 243.19 279.987 242.901L283.814 243.011C283.655 243.869 283.305 244.616 282.766 245.253C282.232 245.884 281.53 246.375 280.661 246.727C279.791 247.074 278.786 247.247 277.643 247.247Z" fill="black"/>
<defs>
<linearGradient id="paint0_linear_20_17" x1="220" y1="0" x2="220" y2="280" gradientUnits="userSpaceOnUse">
<stop offset="0.81" stop-color="#00C6AE" stop-opacity="0"/>
<stop offset="1" stop-color="#00C6AE"/>
</linearGradient>
</defs>
</svg>
