<svg width="1280" height="640" viewBox="0 0 1280 640" fill="none" xmlns="http://www.w3.org/2000/svg">
<rect width="1280" height="640" fill="#F9F9F9"/>
<rect width="1280" height="640" fill="url(#paint0_linear_21_28)" fill-opacity="0.2"/>
<path fill-rule="evenodd" clip-rule="evenodd" d="M585.682 125.123C555.303 143.523 535 176.89 535 215C535 247.433 549.705 276.432 572.812 295.693L585.682 125.123ZM572.969 295.823L685.15 278L692.5 305.3L732.4 244.4L666.25 218.15L672.55 241.25L616.143 252.8L623.704 111.257C629.015 110.429 634.457 110 640 110C697.99 110 745 157.01 745 215C745 272.99 697.99 320 640 320C614.517 320 591.154 310.922 572.969 295.823Z" fill="#00C6AE"/>
<path d="M426.25 408V361.455H438.886V397.818H457.705V408H426.25ZM637.312 408V361.455H649.949V397.818H668.767V408H637.312Z" fill="#00C6AE"/>
<path d="M479.812 408.636C476.025 408.636 472.782 407.886 470.085 406.386C467.388 404.871 465.32 402.765 463.881 400.068C462.441 397.356 461.722 394.212 461.722 390.636C461.722 387.061 462.441 383.924 463.881 381.227C465.32 378.515 467.388 376.409 470.085 374.909C472.782 373.394 476.025 372.636 479.812 372.636C483.6 372.636 486.843 373.394 489.54 374.909C492.237 376.409 494.305 378.515 495.744 381.227C497.184 383.924 497.903 387.061 497.903 390.636C497.903 394.212 497.184 397.356 495.744 400.068C494.305 402.765 492.237 404.871 489.54 406.386C486.843 407.886 483.6 408.636 479.812 408.636ZM479.903 399.364C480.964 399.364 481.881 399.008 482.653 398.295C483.426 397.583 484.025 396.568 484.449 395.25C484.873 393.932 485.085 392.364 485.085 390.545C485.085 388.712 484.873 387.144 484.449 385.841C484.025 384.523 483.426 383.508 482.653 382.795C481.881 382.083 480.964 381.727 479.903 381.727C478.782 381.727 477.82 382.083 477.017 382.795C476.214 383.508 475.6 384.523 475.176 385.841C474.752 387.144 474.54 388.712 474.54 390.545C474.54 392.364 474.752 393.932 475.176 395.25C475.6 396.568 476.214 397.583 477.017 398.295C477.82 399.008 478.782 399.364 479.903 399.364ZM519.812 408.636C516.025 408.636 512.782 407.886 510.085 406.386C507.388 404.871 505.32 402.765 503.881 400.068C502.441 397.356 501.722 394.212 501.722 390.636C501.722 387.061 502.441 383.924 503.881 381.227C505.32 378.515 507.388 376.409 510.085 374.909C512.782 373.394 516.025 372.636 519.812 372.636C523.237 372.636 526.199 373.258 528.699 374.5C531.214 375.727 533.161 377.47 534.54 379.727C535.919 381.97 536.616 384.606 536.631 387.636H524.994C524.828 385.803 524.297 384.409 523.403 383.455C522.525 382.485 521.388 382 519.994 382C518.903 382 517.949 382.318 517.131 382.955C516.313 383.576 515.676 384.523 515.222 385.795C514.767 387.053 514.54 388.636 514.54 390.545C514.54 392.455 514.767 394.045 515.222 395.318C515.676 396.576 516.313 397.523 517.131 398.159C517.949 398.78 518.903 399.091 519.994 399.091C520.919 399.091 521.737 398.879 522.449 398.455C523.161 398.015 523.737 397.379 524.176 396.545C524.631 395.697 524.903 394.667 524.994 393.455H536.631C536.585 396.53 535.881 399.212 534.517 401.5C533.153 403.773 531.222 405.53 528.722 406.773C526.237 408.015 523.267 408.636 519.812 408.636ZM551.534 408.545C549.307 408.545 547.337 408.182 545.625 407.455C543.928 406.712 542.595 405.591 541.625 404.091C540.655 402.591 540.17 400.682 540.17 398.364C540.17 396.455 540.496 394.826 541.148 393.477C541.799 392.114 542.708 391 543.875 390.136C545.042 389.273 546.398 388.614 547.943 388.159C549.504 387.705 551.186 387.409 552.989 387.273C554.943 387.121 556.511 386.939 557.693 386.727C558.89 386.5 559.754 386.189 560.284 385.795C560.814 385.386 561.08 384.848 561.08 384.182V384.091C561.08 383.182 560.731 382.485 560.034 382C559.337 381.515 558.443 381.273 557.352 381.273C556.155 381.273 555.178 381.538 554.42 382.068C553.678 382.583 553.231 383.379 553.08 384.455H541.534C541.686 382.333 542.36 380.379 543.557 378.591C544.769 376.788 546.534 375.348 548.852 374.273C551.17 373.182 554.064 372.636 557.534 372.636C560.034 372.636 562.277 372.932 564.261 373.523C566.246 374.098 567.936 374.909 569.33 375.955C570.723 376.985 571.784 378.197 572.511 379.591C573.254 380.97 573.625 382.47 573.625 384.091V408H561.898V403.091H561.625C560.928 404.394 560.08 405.447 559.08 406.25C558.095 407.053 556.966 407.636 555.693 408C554.436 408.364 553.049 408.545 551.534 408.545ZM555.625 400.636C556.58 400.636 557.473 400.439 558.307 400.045C559.155 399.652 559.845 399.083 560.375 398.341C560.905 397.598 561.17 396.697 561.17 395.636V392.727C560.837 392.864 560.481 392.992 560.102 393.114C559.739 393.235 559.345 393.348 558.92 393.455C558.511 393.561 558.072 393.659 557.602 393.75C557.148 393.841 556.67 393.924 556.17 394C555.201 394.152 554.405 394.402 553.784 394.75C553.178 395.083 552.723 395.5 552.42 396C552.133 396.485 551.989 397.03 551.989 397.636C551.989 398.606 552.33 399.348 553.011 399.864C553.693 400.379 554.564 400.636 555.625 400.636ZM592.165 361.455V408H579.619V361.455H592.165ZM615.284 408.636C611.557 408.636 608.345 407.924 605.648 406.5C602.966 405.061 600.898 403 599.443 400.318C598.004 397.621 597.284 394.394 597.284 390.636C597.284 387.03 598.011 383.879 599.466 381.182C600.92 378.485 602.973 376.386 605.625 374.886C608.277 373.386 611.405 372.636 615.011 372.636C617.648 372.636 620.034 373.045 622.17 373.864C624.307 374.682 626.133 375.871 627.648 377.432C629.163 378.977 630.33 380.856 631.148 383.068C631.966 385.28 632.375 387.773 632.375 390.545V393.455H601.193V386.545H620.83C620.814 385.545 620.557 384.667 620.057 383.909C619.572 383.136 618.913 382.538 618.08 382.114C617.261 381.674 616.33 381.455 615.284 381.455C614.269 381.455 613.337 381.674 612.489 382.114C611.64 382.538 610.958 383.129 610.443 383.886C609.943 384.644 609.678 385.53 609.648 386.545V394C609.648 395.121 609.883 396.121 610.352 397C610.822 397.879 611.496 398.568 612.375 399.068C613.254 399.568 614.314 399.818 615.557 399.818C616.42 399.818 617.208 399.697 617.92 399.455C618.648 399.212 619.269 398.864 619.784 398.409C620.299 397.939 620.678 397.379 620.92 396.727H632.375C631.981 399.152 631.049 401.258 629.58 403.045C628.11 404.818 626.163 406.197 623.739 407.182C621.33 408.152 618.511 408.636 615.284 408.636ZM690.784 408.636C687.057 408.636 683.845 407.924 681.148 406.5C678.466 405.061 676.398 403 674.943 400.318C673.504 397.621 672.784 394.394 672.784 390.636C672.784 387.03 673.511 383.879 674.966 381.182C676.42 378.485 678.473 376.386 681.125 374.886C683.777 373.386 686.905 372.636 690.511 372.636C693.148 372.636 695.534 373.045 697.67 373.864C699.807 374.682 701.633 375.871 703.148 377.432C704.663 378.977 705.83 380.856 706.648 383.068C707.466 385.28 707.875 387.773 707.875 390.545V393.455H676.693V386.545H696.33C696.314 385.545 696.057 384.667 695.557 383.909C695.072 383.136 694.413 382.538 693.58 382.114C692.761 381.674 691.83 381.455 690.784 381.455C689.769 381.455 688.837 381.674 687.989 382.114C687.14 382.538 686.458 383.129 685.943 383.886C685.443 384.644 685.178 385.53 685.148 386.545V394C685.148 395.121 685.383 396.121 685.852 397C686.322 397.879 686.996 398.568 687.875 399.068C688.754 399.568 689.814 399.818 691.057 399.818C691.92 399.818 692.708 399.697 693.42 399.455C694.148 399.212 694.769 398.864 695.284 398.409C695.799 397.939 696.178 397.379 696.42 396.727H707.875C707.481 399.152 706.549 401.258 705.08 403.045C703.61 404.818 701.663 406.197 699.239 407.182C696.83 408.152 694.011 408.636 690.784 408.636ZM722.722 408.545C720.494 408.545 718.525 408.182 716.812 407.455C715.116 406.712 713.782 405.591 712.812 404.091C711.843 402.591 711.358 400.682 711.358 398.364C711.358 396.455 711.684 394.826 712.335 393.477C712.987 392.114 713.896 391 715.062 390.136C716.229 389.273 717.585 388.614 719.131 388.159C720.691 387.705 722.373 387.409 724.176 387.273C726.131 387.121 727.699 386.939 728.881 386.727C730.078 386.5 730.941 386.189 731.472 385.795C732.002 385.386 732.267 384.848 732.267 384.182V384.091C732.267 383.182 731.919 382.485 731.222 382C730.525 381.515 729.631 381.273 728.54 381.273C727.343 381.273 726.366 381.538 725.608 382.068C724.866 382.583 724.419 383.379 724.267 384.455H712.722C712.873 382.333 713.547 380.379 714.744 378.591C715.956 376.788 717.722 375.348 720.04 374.273C722.358 373.182 725.252 372.636 728.722 372.636C731.222 372.636 733.464 372.932 735.449 373.523C737.434 374.098 739.123 374.909 740.517 375.955C741.911 376.985 742.972 378.197 743.699 379.591C744.441 380.97 744.812 382.47 744.812 384.091V408H733.085V403.091H732.812C732.116 404.394 731.267 405.447 730.267 406.25C729.282 407.053 728.153 407.636 726.881 408C725.623 408.364 724.237 408.545 722.722 408.545ZM726.812 400.636C727.767 400.636 728.661 400.439 729.494 400.045C730.343 399.652 731.032 399.083 731.562 398.341C732.093 397.598 732.358 396.697 732.358 395.636V392.727C732.025 392.864 731.669 392.992 731.29 393.114C730.926 393.235 730.532 393.348 730.108 393.455C729.699 393.561 729.259 393.659 728.79 393.75C728.335 393.841 727.858 393.924 727.358 394C726.388 394.152 725.593 394.402 724.972 394.75C724.366 395.083 723.911 395.5 723.608 396C723.32 396.485 723.176 397.03 723.176 397.636C723.176 398.606 723.517 399.348 724.199 399.864C724.881 400.379 725.752 400.636 726.812 400.636ZM750.807 421.091V373.091H763.261V379.182H763.534C763.989 378 764.655 376.917 765.534 375.932C766.413 374.932 767.504 374.136 768.807 373.545C770.11 372.939 771.625 372.636 773.352 372.636C775.655 372.636 777.845 373.25 779.92 374.477C782.011 375.705 783.708 377.636 785.011 380.273C786.33 382.909 786.989 386.333 786.989 390.545C786.989 394.576 786.36 397.917 785.102 400.568C783.86 403.22 782.193 405.197 780.102 406.5C778.027 407.803 775.746 408.455 773.261 408.455C771.625 408.455 770.163 408.189 768.875 407.659C767.602 407.114 766.511 406.379 765.602 405.455C764.708 404.515 764.019 403.455 763.534 402.273H763.352V421.091H750.807ZM763.08 390.545C763.08 392.242 763.299 393.712 763.739 394.955C764.193 396.182 764.83 397.136 765.648 397.818C766.481 398.485 767.473 398.818 768.625 398.818C769.777 398.818 770.754 398.492 771.557 397.841C772.375 397.174 772.996 396.227 773.42 395C773.86 393.758 774.08 392.273 774.08 390.545C774.08 388.818 773.86 387.341 773.42 386.114C772.996 384.871 772.375 383.924 771.557 383.273C770.754 382.606 769.777 382.273 768.625 382.273C767.473 382.273 766.481 382.606 765.648 383.273C764.83 383.924 764.193 384.871 763.739 386.114C763.299 387.341 763.08 388.818 763.08 390.545ZM808.972 408.636C805.244 408.636 802.032 407.924 799.335 406.5C796.653 405.061 794.585 403 793.131 400.318C791.691 397.621 790.972 394.394 790.972 390.636C790.972 387.03 791.699 383.879 793.153 381.182C794.608 378.485 796.661 376.386 799.312 374.886C801.964 373.386 805.093 372.636 808.699 372.636C811.335 372.636 813.722 373.045 815.858 373.864C817.994 374.682 819.82 375.871 821.335 377.432C822.85 378.977 824.017 380.856 824.835 383.068C825.653 385.28 826.062 387.773 826.062 390.545V393.455H794.881V386.545H814.517C814.502 385.545 814.244 384.667 813.744 383.909C813.259 383.136 812.6 382.538 811.767 382.114C810.949 381.674 810.017 381.455 808.972 381.455C807.956 381.455 807.025 381.674 806.176 382.114C805.328 382.538 804.646 383.129 804.131 383.886C803.631 384.644 803.366 385.53 803.335 386.545V394C803.335 395.121 803.57 396.121 804.04 397C804.509 397.879 805.184 398.568 806.062 399.068C806.941 399.568 808.002 399.818 809.244 399.818C810.108 399.818 810.896 399.697 811.608 399.455C812.335 399.212 812.956 398.864 813.472 398.409C813.987 397.939 814.366 397.379 814.608 396.727H826.062C825.669 399.152 824.737 401.258 823.267 403.045C821.797 404.818 819.85 406.197 817.426 407.182C815.017 408.152 812.199 408.636 808.972 408.636ZM831.182 408V373.091H843.364V379.727H843.727C844.364 377.273 845.371 375.477 846.75 374.341C848.144 373.205 849.773 372.636 851.636 372.636C852.182 372.636 852.72 372.682 853.25 372.773C853.795 372.848 854.318 372.962 854.818 373.114V383.818C854.197 383.606 853.432 383.447 852.523 383.341C851.614 383.235 850.833 383.182 850.182 383.182C848.955 383.182 847.848 383.462 846.864 384.023C845.894 384.568 845.129 385.341 844.568 386.341C844.008 387.326 843.727 388.485 843.727 389.818V408H831.182Z" fill="black"/>
<path d="M564.963 436.545V440.636H553.736V436.545H564.963ZM556.077 454V435.659C556.077 434.311 556.33 433.193 556.838 432.307C557.346 431.413 558.05 430.746 558.952 430.307C559.853 429.86 560.895 429.636 562.077 429.636C562.849 429.636 563.577 429.697 564.259 429.818C564.948 429.932 565.459 430.034 565.793 430.125L564.906 434.193C564.702 434.125 564.452 434.068 564.156 434.023C563.868 433.977 563.596 433.955 563.338 433.955C562.687 433.955 562.24 434.098 561.997 434.386C561.755 434.674 561.634 435.068 561.634 435.568V454H556.077ZM575.222 454.33C573.388 454.33 571.813 453.955 570.494 453.205C569.184 452.447 568.172 451.394 567.46 450.045C566.756 448.689 566.403 447.117 566.403 445.33C566.403 443.534 566.756 441.962 567.46 440.614C568.172 439.258 569.184 438.205 570.494 437.455C571.813 436.697 573.388 436.318 575.222 436.318C577.055 436.318 578.627 436.697 579.938 437.455C581.256 438.205 582.267 439.258 582.972 440.614C583.684 441.962 584.04 443.534 584.04 445.33C584.04 447.117 583.684 448.689 582.972 450.045C582.267 451.394 581.256 452.447 579.938 453.205C578.627 453.955 577.055 454.33 575.222 454.33ZM575.256 450.136C575.922 450.136 576.487 449.932 576.949 449.523C577.411 449.114 577.763 448.545 578.006 447.818C578.256 447.091 578.381 446.25 578.381 445.295C578.381 444.326 578.256 443.477 578.006 442.75C577.763 442.023 577.411 441.455 576.949 441.045C576.487 440.636 575.922 440.432 575.256 440.432C574.566 440.432 573.983 440.636 573.506 441.045C573.036 441.455 572.676 442.023 572.426 442.75C572.184 443.477 572.062 444.326 572.062 445.295C572.062 446.25 572.184 447.091 572.426 447.818C572.676 448.545 573.036 449.114 573.506 449.523C573.983 449.932 574.566 450.136 575.256 450.136ZM586.886 454V436.545H592.284V439.727H592.466C592.784 438.576 593.303 437.72 594.023 437.159C594.742 436.591 595.58 436.307 596.534 436.307C596.792 436.307 597.057 436.326 597.33 436.364C597.602 436.394 597.856 436.443 598.091 436.511V441.341C597.826 441.25 597.477 441.178 597.045 441.125C596.621 441.072 596.242 441.045 595.909 441.045C595.25 441.045 594.655 441.193 594.125 441.489C593.602 441.777 593.189 442.182 592.886 442.705C592.591 443.22 592.443 443.826 592.443 444.523V454H586.886ZM612.241 449.42L612.264 442.795H613.037L617.946 436.545H624.241L616.946 445.5H615.48L612.241 449.42ZM607.23 454V430.727H612.787V454H607.23ZM618.071 454L613.503 446.75L617.162 442.807L624.491 454H618.071ZM626.23 454V436.545H631.787V454H626.23ZM629.014 434.511C628.234 434.511 627.563 434.254 627.003 433.739C626.442 433.216 626.162 432.587 626.162 431.852C626.162 431.125 626.442 430.504 627.003 429.989C627.563 429.466 628.234 429.205 629.014 429.205C629.802 429.205 630.473 429.466 631.026 429.989C631.586 430.504 631.866 431.125 631.866 431.852C631.866 432.587 631.586 433.216 631.026 433.739C630.473 434.254 629.802 434.511 629.014 434.511ZM640.881 444.045V454H635.324V436.545H640.608V439.75H640.801C641.188 438.682 641.847 437.845 642.778 437.239C643.71 436.625 644.82 436.318 646.108 436.318C647.335 436.318 648.4 436.595 649.301 437.148C650.21 437.693 650.915 438.458 651.415 439.443C651.922 440.42 652.172 441.564 652.165 442.875V454H646.608V443.966C646.616 442.996 646.369 442.239 645.869 441.693C645.377 441.148 644.691 440.875 643.812 440.875C643.229 440.875 642.714 441.004 642.267 441.261C641.828 441.511 641.487 441.871 641.244 442.341C641.009 442.811 640.888 443.379 640.881 444.045ZM665.457 436.545V440.636H654.446V436.545H665.457ZM656.753 432.364H662.31V448.511C662.31 448.852 662.363 449.129 662.469 449.341C662.582 449.545 662.745 449.693 662.957 449.784C663.17 449.867 663.423 449.909 663.719 449.909C663.931 449.909 664.154 449.89 664.389 449.852C664.632 449.807 664.813 449.769 664.935 449.739L665.776 453.75C665.51 453.826 665.135 453.92 664.651 454.034C664.173 454.148 663.601 454.22 662.935 454.25C661.632 454.311 660.514 454.159 659.582 453.795C658.658 453.424 657.95 452.848 657.457 452.068C656.973 451.288 656.738 450.307 656.753 449.125V432.364ZM676.253 454.33C674.42 454.33 672.844 453.955 671.526 453.205C670.215 452.447 669.204 451.394 668.491 450.045C667.787 448.689 667.435 447.117 667.435 445.33C667.435 443.534 667.787 441.962 668.491 440.614C669.204 439.258 670.215 438.205 671.526 437.455C672.844 436.697 674.42 436.318 676.253 436.318C678.086 436.318 679.658 436.697 680.969 437.455C682.287 438.205 683.298 439.258 684.003 440.614C684.715 441.962 685.071 443.534 685.071 445.33C685.071 447.117 684.715 448.689 684.003 450.045C683.298 451.394 682.287 452.447 680.969 453.205C679.658 453.955 678.086 454.33 676.253 454.33ZM676.287 450.136C676.954 450.136 677.518 449.932 677.98 449.523C678.442 449.114 678.795 448.545 679.037 447.818C679.287 447.091 679.412 446.25 679.412 445.295C679.412 444.326 679.287 443.477 679.037 442.75C678.795 442.023 678.442 441.455 677.98 441.045C677.518 440.636 676.954 440.432 676.287 440.432C675.598 440.432 675.014 440.636 674.537 441.045C674.067 441.455 673.707 442.023 673.457 442.75C673.215 443.477 673.094 444.326 673.094 445.295C673.094 446.25 673.215 447.091 673.457 447.818C673.707 448.545 674.067 449.114 674.537 449.523C675.014 449.932 675.598 450.136 676.287 450.136ZM693.474 444.045V454H687.918V436.545H693.202V439.75H693.395C693.781 438.682 694.44 437.845 695.372 437.239C696.304 436.625 697.414 436.318 698.702 436.318C699.929 436.318 700.993 436.595 701.895 437.148C702.804 437.693 703.509 438.458 704.009 439.443C704.516 440.42 704.766 441.564 704.759 442.875V454H699.202V443.966C699.209 442.996 698.963 442.239 698.463 441.693C697.971 441.148 697.285 440.875 696.406 440.875C695.823 440.875 695.308 441.004 694.861 441.261C694.421 441.511 694.08 441.871 693.838 442.341C693.603 442.811 693.482 443.379 693.474 444.045ZM716.358 454.33C714.532 454.33 712.956 453.97 711.631 453.25C710.313 452.523 709.297 451.489 708.585 450.148C707.881 448.799 707.528 447.197 707.528 445.341C707.528 443.538 707.884 441.962 708.597 440.614C709.309 439.258 710.312 438.205 711.608 437.455C712.903 436.697 714.43 436.318 716.188 436.318C717.43 436.318 718.566 436.511 719.597 436.898C720.627 437.284 721.517 437.856 722.267 438.614C723.017 439.371 723.6 440.307 724.017 441.42C724.434 442.527 724.642 443.795 724.642 445.227V446.614H709.472V443.386H719.472C719.464 442.795 719.324 442.269 719.051 441.807C718.778 441.345 718.403 440.985 717.926 440.727C717.456 440.462 716.915 440.33 716.301 440.33C715.68 440.33 715.123 440.47 714.631 440.75C714.138 441.023 713.748 441.398 713.46 441.875C713.172 442.345 713.021 442.879 713.006 443.477V446.761C713.006 447.473 713.146 448.098 713.426 448.636C713.706 449.167 714.104 449.58 714.619 449.875C715.134 450.17 715.748 450.318 716.46 450.318C716.953 450.318 717.4 450.25 717.801 450.114C718.203 449.977 718.547 449.777 718.835 449.511C719.123 449.246 719.339 448.92 719.483 448.534L724.585 448.682C724.373 449.826 723.907 450.822 723.188 451.67C722.475 452.511 721.54 453.167 720.381 453.636C719.222 454.098 717.881 454.33 716.358 454.33Z" fill="black"/>
<path d="M414.673 511V493.545H418.363V507.957H425.846V511H414.673ZM435.148 511.256C433.801 511.256 432.642 510.983 431.671 510.438C430.705 509.886 429.961 509.108 429.438 508.102C428.915 507.091 428.654 505.895 428.654 504.514C428.654 503.168 428.915 501.986 429.438 500.969C429.961 499.952 430.696 499.159 431.645 498.591C432.6 498.023 433.719 497.739 435.003 497.739C435.867 497.739 436.671 497.878 437.415 498.156C438.165 498.429 438.819 498.841 439.375 499.392C439.938 499.943 440.375 500.636 440.688 501.472C441 502.301 441.157 503.273 441.157 504.386V505.384H430.103V503.134H437.739C437.739 502.611 437.625 502.148 437.398 501.744C437.171 501.341 436.855 501.026 436.452 500.798C436.054 500.565 435.591 500.449 435.063 500.449C434.512 500.449 434.023 500.577 433.597 500.832C433.176 501.082 432.847 501.42 432.608 501.847C432.37 502.267 432.247 502.736 432.242 503.253V505.392C432.242 506.04 432.361 506.599 432.6 507.071C432.844 507.543 433.188 507.906 433.631 508.162C434.074 508.418 434.6 508.545 435.208 508.545C435.611 508.545 435.98 508.489 436.316 508.375C436.651 508.261 436.938 508.091 437.176 507.864C437.415 507.636 437.597 507.358 437.722 507.028L441.08 507.25C440.909 508.057 440.56 508.761 440.032 509.364C439.509 509.96 438.833 510.426 438.003 510.761C437.179 511.091 436.228 511.256 435.148 511.256ZM448.219 511.247C447.384 511.247 446.639 511.102 445.986 510.812C445.332 510.517 444.815 510.082 444.435 509.509C444.06 508.929 443.872 508.207 443.872 507.344C443.872 506.616 444.006 506.006 444.273 505.511C444.54 505.017 444.904 504.619 445.364 504.318C445.824 504.017 446.347 503.79 446.932 503.636C447.523 503.483 448.142 503.375 448.79 503.312C449.551 503.233 450.165 503.159 450.631 503.091C451.097 503.017 451.435 502.909 451.645 502.767C451.855 502.625 451.96 502.415 451.96 502.136V502.085C451.96 501.545 451.79 501.128 451.449 500.832C451.114 500.537 450.636 500.389 450.017 500.389C449.364 500.389 448.844 500.534 448.457 500.824C448.071 501.108 447.815 501.466 447.69 501.898L444.332 501.625C444.503 500.83 444.838 500.142 445.338 499.562C445.838 498.977 446.483 498.528 447.273 498.216C448.068 497.898 448.989 497.739 450.034 497.739C450.761 497.739 451.457 497.824 452.122 497.994C452.793 498.165 453.386 498.429 453.904 498.787C454.426 499.145 454.838 499.605 455.139 500.168C455.44 500.724 455.591 501.392 455.591 502.17V511H452.148V509.185H452.046C451.835 509.594 451.554 509.955 451.202 510.267C450.85 510.574 450.426 510.815 449.932 510.991C449.438 511.162 448.867 511.247 448.219 511.247ZM449.259 508.741C449.793 508.741 450.264 508.636 450.673 508.426C451.082 508.21 451.404 507.92 451.636 507.557C451.869 507.193 451.986 506.781 451.986 506.321V504.932C451.872 505.006 451.716 505.074 451.517 505.136C451.324 505.193 451.105 505.247 450.861 505.298C450.617 505.344 450.372 505.386 450.128 505.426C449.884 505.46 449.662 505.491 449.463 505.52C449.037 505.582 448.665 505.682 448.347 505.818C448.029 505.955 447.781 506.139 447.605 506.372C447.429 506.599 447.341 506.884 447.341 507.224C447.341 507.719 447.52 508.097 447.878 508.358C448.242 508.614 448.702 508.741 449.259 508.741ZM459.368 515.909V497.909H462.947V500.108H463.109C463.268 499.756 463.498 499.398 463.8 499.034C464.106 498.665 464.504 498.358 464.993 498.114C465.487 497.864 466.101 497.739 466.834 497.739C467.788 497.739 468.669 497.989 469.476 498.489C470.283 498.983 470.927 499.73 471.41 500.73C471.893 501.724 472.135 502.972 472.135 504.472C472.135 505.932 471.899 507.165 471.427 508.17C470.962 509.17 470.325 509.929 469.518 510.446C468.717 510.957 467.819 511.213 466.825 511.213C466.121 511.213 465.521 511.097 465.027 510.864C464.538 510.631 464.138 510.338 463.825 509.986C463.513 509.628 463.274 509.267 463.109 508.903H462.998V515.909H459.368ZM462.922 504.455C462.922 505.233 463.03 505.912 463.246 506.491C463.462 507.071 463.774 507.523 464.183 507.847C464.592 508.165 465.089 508.324 465.675 508.324C466.266 508.324 466.766 508.162 467.175 507.838C467.584 507.509 467.893 507.054 468.104 506.474C468.319 505.889 468.427 505.216 468.427 504.455C468.427 503.699 468.322 503.034 468.112 502.46C467.902 501.886 467.592 501.437 467.183 501.114C466.774 500.79 466.271 500.628 465.675 500.628C465.084 500.628 464.584 500.784 464.175 501.097C463.771 501.409 463.462 501.852 463.246 502.426C463.03 503 462.922 503.676 462.922 504.455ZM488.993 497.909V500.636H481.11V497.909H488.993ZM482.899 494.773H486.53V506.977C486.53 507.312 486.581 507.574 486.683 507.761C486.786 507.943 486.928 508.071 487.11 508.145C487.297 508.219 487.513 508.256 487.757 508.256C487.928 508.256 488.098 508.241 488.269 508.213C488.439 508.179 488.57 508.153 488.661 508.136L489.232 510.838C489.05 510.895 488.794 510.96 488.465 511.034C488.135 511.114 487.735 511.162 487.263 511.179C486.388 511.213 485.621 511.097 484.962 510.83C484.308 510.562 483.8 510.148 483.436 509.585C483.073 509.023 482.894 508.312 482.899 507.455V494.773ZM496.23 503.432V511H492.599V493.545H496.128V500.219H496.281C496.577 499.446 497.054 498.841 497.713 498.403C498.372 497.96 499.199 497.739 500.193 497.739C501.102 497.739 501.895 497.938 502.571 498.335C503.253 498.727 503.781 499.293 504.156 500.031C504.537 500.764 504.724 501.642 504.719 502.665V511H501.088V503.312C501.094 502.506 500.889 501.878 500.474 501.429C500.065 500.98 499.491 500.756 498.753 500.756C498.258 500.756 497.821 500.861 497.44 501.071C497.065 501.281 496.77 501.588 496.554 501.991C496.344 502.389 496.236 502.869 496.23 503.432ZM514.502 511.256C513.155 511.256 511.996 510.983 511.025 510.438C510.059 509.886 509.314 509.108 508.792 508.102C508.269 507.091 508.007 505.895 508.007 504.514C508.007 503.168 508.269 501.986 508.792 500.969C509.314 499.952 510.05 499.159 510.999 498.591C511.954 498.023 513.073 497.739 514.357 497.739C515.221 497.739 516.025 497.878 516.769 498.156C517.519 498.429 518.172 498.841 518.729 499.392C519.292 499.943 519.729 500.636 520.042 501.472C520.354 502.301 520.51 503.273 520.51 504.386V505.384H509.456V503.134H517.093C517.093 502.611 516.979 502.148 516.752 501.744C516.525 501.341 516.209 501.026 515.806 500.798C515.408 500.565 514.945 500.449 514.417 500.449C513.865 500.449 513.377 500.577 512.951 500.832C512.53 501.082 512.201 501.42 511.962 501.847C511.723 502.267 511.601 502.736 511.596 503.253V505.392C511.596 506.04 511.715 506.599 511.954 507.071C512.198 507.543 512.542 507.906 512.985 508.162C513.428 508.418 513.954 508.545 514.561 508.545C514.965 508.545 515.334 508.489 515.669 508.375C516.005 508.261 516.292 508.091 516.53 507.864C516.769 507.636 516.951 507.358 517.076 507.028L520.434 507.25C520.263 508.057 519.914 508.761 519.385 509.364C518.863 509.96 518.186 510.426 517.357 510.761C516.533 511.091 515.581 511.256 514.502 511.256ZM533.985 493.545V511H530.354V493.545H533.985ZM541.586 511.247C540.751 511.247 540.007 511.102 539.353 510.812C538.7 510.517 538.183 510.082 537.802 509.509C537.427 508.929 537.24 508.207 537.24 507.344C537.24 506.616 537.373 506.006 537.64 505.511C537.907 505.017 538.271 504.619 538.731 504.318C539.191 504.017 539.714 503.79 540.299 503.636C540.89 503.483 541.51 503.375 542.157 503.312C542.919 503.233 543.532 503.159 543.998 503.091C544.464 503.017 544.802 502.909 545.012 502.767C545.223 502.625 545.328 502.415 545.328 502.136V502.085C545.328 501.545 545.157 501.128 544.816 500.832C544.481 500.537 544.004 500.389 543.385 500.389C542.731 500.389 542.211 500.534 541.825 500.824C541.439 501.108 541.183 501.466 541.058 501.898L537.7 501.625C537.87 500.83 538.206 500.142 538.706 499.562C539.206 498.977 539.851 498.528 540.64 498.216C541.436 497.898 542.356 497.739 543.402 497.739C544.129 497.739 544.825 497.824 545.49 497.994C546.16 498.165 546.754 498.429 547.271 498.787C547.794 499.145 548.206 499.605 548.507 500.168C548.808 500.724 548.959 501.392 548.959 502.17V511H545.515V509.185H545.413C545.203 509.594 544.922 509.955 544.569 510.267C544.217 510.574 543.794 510.815 543.299 510.991C542.805 511.162 542.234 511.247 541.586 511.247ZM542.626 508.741C543.16 508.741 543.632 508.636 544.041 508.426C544.45 508.21 544.771 507.92 545.004 507.557C545.237 507.193 545.353 506.781 545.353 506.321V504.932C545.24 505.006 545.084 505.074 544.885 505.136C544.691 505.193 544.473 505.247 544.228 505.298C543.984 505.344 543.74 505.386 543.495 505.426C543.251 505.46 543.03 505.491 542.831 505.52C542.405 505.582 542.032 505.682 541.714 505.818C541.396 505.955 541.149 506.139 540.973 506.372C540.797 506.599 540.709 506.884 540.709 507.224C540.709 507.719 540.887 508.097 541.245 508.358C541.609 508.614 542.069 508.741 542.626 508.741ZM556.366 503.432V511H552.735V497.909H556.195V500.219H556.349C556.639 499.457 557.124 498.855 557.806 498.412C558.488 497.963 559.315 497.739 560.286 497.739C561.195 497.739 561.988 497.938 562.664 498.335C563.34 498.733 563.866 499.301 564.241 500.04C564.616 500.773 564.803 501.648 564.803 502.665V511H561.173V503.312C561.178 502.511 560.974 501.886 560.559 501.438C560.144 500.983 559.573 500.756 558.846 500.756C558.357 500.756 557.926 500.861 557.551 501.071C557.181 501.281 556.892 501.588 556.681 501.991C556.477 502.389 556.372 502.869 556.366 503.432ZM574.523 516.182C573.347 516.182 572.338 516.02 571.497 515.696C570.662 515.378 569.997 514.943 569.503 514.392C569.008 513.841 568.687 513.222 568.54 512.534L571.898 512.082C572 512.344 572.162 512.588 572.383 512.815C572.605 513.043 572.898 513.224 573.261 513.361C573.631 513.503 574.08 513.574 574.608 513.574C575.398 513.574 576.048 513.381 576.56 512.994C577.077 512.614 577.335 511.974 577.335 511.077V508.682H577.182C577.023 509.045 576.784 509.389 576.466 509.713C576.148 510.037 575.739 510.301 575.239 510.506C574.739 510.71 574.142 510.812 573.449 510.812C572.466 510.812 571.571 510.585 570.764 510.131C569.963 509.67 569.324 508.969 568.847 508.026C568.375 507.077 568.139 505.878 568.139 504.429C568.139 502.946 568.381 501.707 568.864 500.713C569.347 499.719 569.989 498.974 570.79 498.48C571.597 497.986 572.48 497.739 573.44 497.739C574.173 497.739 574.787 497.864 575.281 498.114C575.776 498.358 576.173 498.665 576.474 499.034C576.781 499.398 577.017 499.756 577.182 500.108H577.318V497.909H580.923V511.128C580.923 512.241 580.651 513.173 580.105 513.923C579.56 514.673 578.804 515.236 577.838 515.611C576.878 515.991 575.773 516.182 574.523 516.182ZM574.599 508.085C575.185 508.085 575.679 507.94 576.082 507.651C576.491 507.355 576.804 506.935 577.02 506.389C577.241 505.838 577.352 505.179 577.352 504.412C577.352 503.645 577.244 502.98 577.028 502.418C576.812 501.849 576.5 501.409 576.091 501.097C575.682 500.784 575.185 500.628 574.599 500.628C574.003 500.628 573.5 500.79 573.091 501.114C572.682 501.432 572.372 501.875 572.162 502.443C571.952 503.011 571.847 503.668 571.847 504.412C571.847 505.168 571.952 505.821 572.162 506.372C572.378 506.918 572.687 507.341 573.091 507.642C573.5 507.937 574.003 508.085 574.599 508.085ZM593.167 505.426V497.909H596.798V511H593.312V508.622H593.176C592.88 509.389 592.389 510.006 591.701 510.472C591.02 510.937 590.187 511.17 589.204 511.17C588.329 511.17 587.559 510.972 586.895 510.574C586.23 510.176 585.71 509.611 585.335 508.878C584.966 508.145 584.778 507.267 584.772 506.244V497.909H588.403V505.597C588.409 506.369 588.616 506.98 589.025 507.429C589.434 507.878 589.983 508.102 590.67 508.102C591.108 508.102 591.517 508.003 591.897 507.804C592.278 507.599 592.585 507.298 592.818 506.901C593.057 506.503 593.173 506.011 593.167 505.426ZM604.395 511.247C603.56 511.247 602.816 511.102 602.162 510.812C601.509 510.517 600.992 510.082 600.611 509.509C600.236 508.929 600.049 508.207 600.049 507.344C600.049 506.616 600.182 506.006 600.449 505.511C600.716 505.017 601.08 504.619 601.54 504.318C602 504.017 602.523 503.79 603.108 503.636C603.699 503.483 604.318 503.375 604.966 503.312C605.727 503.233 606.341 503.159 606.807 503.091C607.273 503.017 607.611 502.909 607.821 502.767C608.031 502.625 608.137 502.415 608.137 502.136V502.085C608.137 501.545 607.966 501.128 607.625 500.832C607.29 500.537 606.813 500.389 606.193 500.389C605.54 500.389 605.02 500.534 604.634 500.824C604.247 501.108 603.992 501.466 603.867 501.898L600.509 501.625C600.679 500.83 601.014 500.142 601.514 499.562C602.014 498.977 602.659 498.528 603.449 498.216C604.245 497.898 605.165 497.739 606.21 497.739C606.938 497.739 607.634 497.824 608.299 497.994C608.969 498.165 609.563 498.429 610.08 498.787C610.602 499.145 611.014 499.605 611.316 500.168C611.617 500.724 611.767 501.392 611.767 502.17V511H608.324V509.185H608.222C608.012 509.594 607.73 509.955 607.378 510.267C607.026 510.574 606.602 510.815 606.108 510.991C605.614 511.162 605.043 511.247 604.395 511.247ZM605.435 508.741C605.969 508.741 606.441 508.636 606.85 508.426C607.259 508.21 607.58 507.92 607.813 507.557C608.046 507.193 608.162 506.781 608.162 506.321V504.932C608.049 505.006 607.892 505.074 607.693 505.136C607.5 505.193 607.281 505.247 607.037 505.298C606.793 505.344 606.549 505.386 606.304 505.426C606.06 505.46 605.838 505.491 605.639 505.52C605.213 505.582 604.841 505.682 604.523 505.818C604.205 505.955 603.958 506.139 603.781 506.372C603.605 506.599 603.517 506.884 603.517 507.224C603.517 507.719 603.696 508.097 604.054 508.358C604.418 508.614 604.878 508.741 605.435 508.741ZM621.442 516.182C620.266 516.182 619.257 516.02 618.416 515.696C617.581 515.378 616.916 514.943 616.422 514.392C615.928 513.841 615.607 513.222 615.459 512.534L618.817 512.082C618.919 512.344 619.081 512.588 619.303 512.815C619.524 513.043 619.817 513.224 620.18 513.361C620.55 513.503 620.999 513.574 621.527 513.574C622.317 513.574 622.967 513.381 623.479 512.994C623.996 512.614 624.254 511.974 624.254 511.077V508.682H624.101C623.942 509.045 623.703 509.389 623.385 509.713C623.067 510.037 622.658 510.301 622.158 510.506C621.658 510.71 621.061 510.812 620.368 510.812C619.385 510.812 618.49 510.585 617.683 510.131C616.882 509.67 616.243 508.969 615.766 508.026C615.294 507.077 615.058 505.878 615.058 504.429C615.058 502.946 615.3 501.707 615.783 500.713C616.266 499.719 616.908 498.974 617.709 498.48C618.516 497.986 619.399 497.739 620.359 497.739C621.092 497.739 621.706 497.864 622.2 498.114C622.695 498.358 623.092 498.665 623.393 499.034C623.7 499.398 623.936 499.756 624.101 500.108H624.237V497.909H627.842V511.128C627.842 512.241 627.57 513.173 627.024 513.923C626.479 514.673 625.723 515.236 624.757 515.611C623.797 515.991 622.692 516.182 621.442 516.182ZM621.518 508.085C622.104 508.085 622.598 507.94 623.001 507.651C623.41 507.355 623.723 506.935 623.939 506.389C624.16 505.838 624.271 505.179 624.271 504.412C624.271 503.645 624.163 502.98 623.947 502.418C623.732 501.849 623.419 501.409 623.01 501.097C622.601 500.784 622.104 500.628 621.518 500.628C620.922 500.628 620.419 500.79 620.01 501.114C619.601 501.432 619.291 501.875 619.081 502.443C618.871 503.011 618.766 503.668 618.766 504.412C618.766 505.168 618.871 505.821 619.081 506.372C619.297 506.918 619.607 507.341 620.01 507.642C620.419 507.937 620.922 508.085 621.518 508.085ZM637.657 511.256C636.311 511.256 635.152 510.983 634.18 510.438C633.214 509.886 632.47 509.108 631.947 508.102C631.424 507.091 631.163 505.895 631.163 504.514C631.163 503.168 631.424 501.986 631.947 500.969C632.47 499.952 633.206 499.159 634.155 498.591C635.109 498.023 636.228 497.739 637.513 497.739C638.376 497.739 639.18 497.878 639.924 498.156C640.674 498.429 641.328 498.841 641.885 499.392C642.447 499.943 642.885 500.636 643.197 501.472C643.51 502.301 643.666 503.273 643.666 504.386V505.384H632.612V503.134H640.248C640.248 502.611 640.135 502.148 639.907 501.744C639.68 501.341 639.365 501.026 638.961 500.798C638.564 500.565 638.101 500.449 637.572 500.449C637.021 500.449 636.532 500.577 636.106 500.832C635.686 501.082 635.356 501.42 635.118 501.847C634.879 502.267 634.757 502.736 634.751 503.253V505.392C634.751 506.04 634.871 506.599 635.109 507.071C635.353 507.543 635.697 507.906 636.14 508.162C636.584 508.418 637.109 508.545 637.717 508.545C638.121 508.545 638.49 508.489 638.825 508.375C639.16 508.261 639.447 508.091 639.686 507.864C639.924 507.636 640.106 507.358 640.231 507.028L643.589 507.25C643.419 508.057 643.069 508.761 642.541 509.364C642.018 509.96 641.342 510.426 640.513 510.761C639.689 511.091 638.737 511.256 637.657 511.256ZM657.887 501.642L654.563 501.847C654.507 501.562 654.384 501.307 654.197 501.08C654.009 500.847 653.762 500.662 653.455 500.526C653.154 500.384 652.794 500.312 652.373 500.312C651.811 500.312 651.336 500.432 650.95 500.67C650.563 500.903 650.37 501.216 650.37 501.608C650.37 501.92 650.495 502.185 650.745 502.401C650.995 502.616 651.424 502.79 652.032 502.92L654.402 503.398C655.674 503.659 656.623 504.08 657.248 504.659C657.873 505.239 658.186 506 658.186 506.943C658.186 507.801 657.933 508.554 657.427 509.202C656.927 509.849 656.24 510.355 655.365 510.719C654.495 511.077 653.492 511.256 652.356 511.256C650.623 511.256 649.242 510.895 648.214 510.173C647.191 509.446 646.592 508.457 646.416 507.207L649.987 507.02C650.095 507.548 650.356 507.952 650.771 508.23C651.186 508.503 651.717 508.639 652.365 508.639C653.001 508.639 653.512 508.517 653.899 508.273C654.291 508.023 654.49 507.702 654.495 507.31C654.49 506.98 654.35 506.71 654.078 506.5C653.805 506.284 653.384 506.119 652.816 506.006L650.549 505.554C649.271 505.298 648.319 504.855 647.694 504.224C647.075 503.594 646.765 502.79 646.765 501.812C646.765 500.972 646.992 500.247 647.447 499.639C647.907 499.031 648.552 498.562 649.382 498.233C650.217 497.903 651.194 497.739 652.313 497.739C653.967 497.739 655.268 498.088 656.217 498.787C657.171 499.486 657.728 500.437 657.887 501.642ZM671.679 511.247C670.844 511.247 670.1 511.102 669.447 510.812C668.793 510.517 668.276 510.082 667.895 509.509C667.52 508.929 667.333 508.207 667.333 507.344C667.333 506.616 667.466 506.006 667.733 505.511C668.001 505.017 668.364 504.619 668.824 504.318C669.285 504.017 669.807 503.79 670.393 503.636C670.983 503.483 671.603 503.375 672.251 503.312C673.012 503.233 673.626 503.159 674.091 503.091C674.557 503.017 674.895 502.909 675.106 502.767C675.316 502.625 675.421 502.415 675.421 502.136V502.085C675.421 501.545 675.251 501.128 674.91 500.832C674.574 500.537 674.097 500.389 673.478 500.389C672.824 500.389 672.304 500.534 671.918 500.824C671.532 501.108 671.276 501.466 671.151 501.898L667.793 501.625C667.964 500.83 668.299 500.142 668.799 499.562C669.299 498.977 669.944 498.528 670.733 498.216C671.529 497.898 672.449 497.739 673.495 497.739C674.222 497.739 674.918 497.824 675.583 497.994C676.253 498.165 676.847 498.429 677.364 498.787C677.887 499.145 678.299 499.605 678.6 500.168C678.901 500.724 679.052 501.392 679.052 502.17V511H675.608V509.185H675.506C675.296 509.594 675.015 509.955 674.662 510.267C674.31 510.574 673.887 510.815 673.393 510.991C672.898 511.162 672.327 511.247 671.679 511.247ZM672.719 508.741C673.253 508.741 673.725 508.636 674.134 508.426C674.543 508.21 674.864 507.92 675.097 507.557C675.33 507.193 675.447 506.781 675.447 506.321V504.932C675.333 505.006 675.177 505.074 674.978 505.136C674.785 505.193 674.566 505.247 674.322 505.298C674.077 505.344 673.833 505.386 673.589 505.426C673.344 505.46 673.123 505.491 672.924 505.52C672.498 505.582 672.126 505.682 671.807 505.818C671.489 505.955 671.242 506.139 671.066 506.372C670.89 506.599 670.802 506.884 670.802 507.224C670.802 507.719 670.981 508.097 671.339 508.358C671.702 508.614 672.162 508.741 672.719 508.741ZM686.459 503.432V511H682.828V497.909H686.289V500.219H686.442C686.732 499.457 687.218 498.855 687.899 498.412C688.581 497.963 689.408 497.739 690.38 497.739C691.289 497.739 692.081 497.938 692.757 498.335C693.434 498.733 693.959 499.301 694.334 500.04C694.709 500.773 694.897 501.648 694.897 502.665V511H691.266V503.312C691.272 502.511 691.067 501.886 690.652 501.438C690.238 500.983 689.666 500.756 688.939 500.756C688.451 500.756 688.019 500.861 687.644 501.071C687.274 501.281 686.985 501.588 686.774 501.991C686.57 502.389 686.465 502.869 686.459 503.432ZM703.542 511.213C702.548 511.213 701.647 510.957 700.84 510.446C700.039 509.929 699.403 509.17 698.931 508.17C698.465 507.165 698.232 505.932 698.232 504.472C698.232 502.972 698.474 501.724 698.957 500.73C699.44 499.73 700.082 498.983 700.883 498.489C701.69 497.989 702.573 497.739 703.533 497.739C704.266 497.739 704.877 497.864 705.366 498.114C705.86 498.358 706.258 498.665 706.559 499.034C706.866 499.398 707.099 499.756 707.258 500.108H707.369V493.545H710.991V511H707.411V508.903H707.258C707.087 509.267 706.846 509.628 706.533 509.986C706.227 510.338 705.826 510.631 705.332 510.864C704.843 511.097 704.246 511.213 703.542 511.213ZM704.693 508.324C705.278 508.324 705.772 508.165 706.175 507.847C706.585 507.523 706.897 507.071 707.113 506.491C707.335 505.912 707.445 505.233 707.445 504.455C707.445 503.676 707.337 503 707.121 502.426C706.906 501.852 706.593 501.409 706.184 501.097C705.775 500.784 705.278 500.628 704.693 500.628C704.096 500.628 703.593 500.79 703.184 501.114C702.775 501.437 702.465 501.886 702.255 502.46C702.045 503.034 701.94 503.699 701.94 504.455C701.94 505.216 702.045 505.889 702.255 506.474C702.471 507.054 702.781 507.509 703.184 507.838C703.593 508.162 704.096 508.324 704.693 508.324ZM728.414 497.909V500.636H720.53V497.909H728.414ZM722.32 494.773H725.951V506.977C725.951 507.312 726.002 507.574 726.104 507.761C726.206 507.943 726.348 508.071 726.53 508.145C726.718 508.219 726.934 508.256 727.178 508.256C727.348 508.256 727.519 508.241 727.689 508.213C727.86 508.179 727.99 508.153 728.081 508.136L728.652 510.838C728.47 510.895 728.215 510.96 727.885 511.034C727.556 511.114 727.155 511.162 726.684 511.179C725.809 511.213 725.041 511.097 724.382 510.83C723.729 510.562 723.22 510.148 722.857 509.585C722.493 509.023 722.314 508.312 722.32 507.455V494.773ZM731.739 511V497.909H735.369V511H731.739ZM733.563 496.222C733.023 496.222 732.56 496.043 732.173 495.685C731.793 495.321 731.602 494.886 731.602 494.381C731.602 493.881 731.793 493.452 732.173 493.094C732.56 492.73 733.023 492.548 733.563 492.548C734.102 492.548 734.563 492.73 734.943 493.094C735.33 493.452 735.523 493.881 735.523 494.381C735.523 494.886 735.33 495.321 734.943 495.685C734.563 496.043 734.102 496.222 733.563 496.222ZM739.238 511V497.909H742.698V500.219H742.851C743.124 499.452 743.579 498.847 744.215 498.403C744.851 497.96 745.613 497.739 746.499 497.739C747.397 497.739 748.161 497.963 748.792 498.412C749.422 498.855 749.843 499.457 750.053 500.219H750.189C750.457 499.469 750.939 498.869 751.638 498.42C752.343 497.966 753.175 497.739 754.136 497.739C755.357 497.739 756.349 498.128 757.11 498.906C757.877 499.679 758.261 500.776 758.261 502.196V511H754.638V502.912C754.638 502.185 754.445 501.639 754.059 501.276C753.672 500.912 753.189 500.73 752.61 500.73C751.951 500.73 751.437 500.94 751.067 501.361C750.698 501.776 750.513 502.324 750.513 503.006V511H746.993V502.835C746.993 502.193 746.809 501.682 746.439 501.301C746.076 500.92 745.596 500.73 744.999 500.73C744.596 500.73 744.232 500.832 743.908 501.037C743.59 501.236 743.337 501.517 743.15 501.881C742.962 502.239 742.868 502.659 742.868 503.142V511H739.238ZM768.054 511.256C766.708 511.256 765.549 510.983 764.577 510.438C763.611 509.886 762.867 509.108 762.344 508.102C761.821 507.091 761.56 505.895 761.56 504.514C761.56 503.168 761.821 501.986 762.344 500.969C762.867 499.952 763.603 499.159 764.551 498.591C765.506 498.023 766.625 497.739 767.909 497.739C768.773 497.739 769.577 497.878 770.321 498.156C771.071 498.429 771.725 498.841 772.282 499.392C772.844 499.943 773.282 500.636 773.594 501.472C773.907 502.301 774.063 503.273 774.063 504.386V505.384H763.009V503.134H770.645C770.645 502.611 770.532 502.148 770.304 501.744C770.077 501.341 769.762 501.026 769.358 500.798C768.961 500.565 768.497 500.449 767.969 500.449C767.418 500.449 766.929 500.577 766.503 500.832C766.083 501.082 765.753 501.42 765.515 501.847C765.276 502.267 765.154 502.736 765.148 503.253V505.392C765.148 506.04 765.267 506.599 765.506 507.071C765.75 507.543 766.094 507.906 766.537 508.162C766.98 508.418 767.506 508.545 768.114 508.545C768.517 508.545 768.887 508.489 769.222 508.375C769.557 508.261 769.844 508.091 770.083 507.864C770.321 507.636 770.503 507.358 770.628 507.028L773.986 507.25C773.816 508.057 773.466 508.761 772.938 509.364C772.415 509.96 771.739 510.426 770.909 510.761C770.086 511.091 769.134 511.256 768.054 511.256ZM783.839 511V508.835L790.248 500.901V500.807H784.06V497.909H794.62V500.27L788.603 508.009V508.102H794.842V511H783.839ZM804.118 511.256C802.794 511.256 801.649 510.974 800.683 510.412C799.723 509.844 798.981 509.054 798.458 508.043C797.936 507.026 797.674 505.847 797.674 504.506C797.674 503.153 797.936 501.972 798.458 500.96C798.981 499.943 799.723 499.153 800.683 498.591C801.649 498.023 802.794 497.739 804.118 497.739C805.441 497.739 806.583 498.023 807.544 498.591C808.51 499.153 809.254 499.943 809.777 500.96C810.299 501.972 810.561 503.153 810.561 504.506C810.561 505.847 810.299 507.026 809.777 508.043C809.254 509.054 808.51 509.844 807.544 510.412C806.583 510.974 805.441 511.256 804.118 511.256ZM804.135 508.443C804.737 508.443 805.24 508.273 805.643 507.932C806.047 507.585 806.35 507.114 806.555 506.517C806.765 505.92 806.87 505.241 806.87 504.48C806.87 503.719 806.765 503.04 806.555 502.443C806.35 501.847 806.047 501.375 805.643 501.028C805.24 500.682 804.737 500.509 804.135 500.509C803.527 500.509 803.015 500.682 802.6 501.028C802.191 501.375 801.882 501.847 801.672 502.443C801.467 503.04 801.365 503.719 801.365 504.48C801.365 505.241 801.467 505.92 801.672 506.517C801.882 507.114 802.191 507.585 802.6 507.932C803.015 508.273 803.527 508.443 804.135 508.443ZM817.512 503.432V511H813.882V497.909H817.342V500.219H817.495C817.785 499.457 818.271 498.855 818.953 498.412C819.634 497.963 820.461 497.739 821.433 497.739C822.342 497.739 823.134 497.938 823.81 498.335C824.487 498.733 825.012 499.301 825.387 500.04C825.762 500.773 825.95 501.648 825.95 502.665V511H822.319V503.312C822.325 502.511 822.12 501.886 821.705 501.438C821.291 500.983 820.72 500.756 819.992 500.756C819.504 500.756 819.072 500.861 818.697 501.071C818.328 501.281 818.038 501.588 817.828 501.991C817.623 502.389 817.518 502.869 817.512 503.432ZM835.737 511.256C834.391 511.256 833.231 510.983 832.26 510.438C831.294 509.886 830.55 509.108 830.027 508.102C829.504 507.091 829.243 505.895 829.243 504.514C829.243 503.168 829.504 501.986 830.027 500.969C830.55 499.952 831.285 499.159 832.234 498.591C833.189 498.023 834.308 497.739 835.592 497.739C836.456 497.739 837.26 497.878 838.004 498.156C838.754 498.429 839.408 498.841 839.964 499.392C840.527 499.943 840.964 500.636 841.277 501.472C841.589 502.301 841.746 503.273 841.746 504.386V505.384H830.692V503.134H838.328C838.328 502.611 838.214 502.148 837.987 501.744C837.76 501.341 837.445 501.026 837.041 500.798C836.643 500.565 836.18 500.449 835.652 500.449C835.101 500.449 834.612 500.577 834.186 500.832C833.766 501.082 833.436 501.42 833.197 501.847C832.959 502.267 832.837 502.736 832.831 503.253V505.392C832.831 506.04 832.95 506.599 833.189 507.071C833.433 507.543 833.777 507.906 834.22 508.162C834.663 508.418 835.189 508.545 835.797 508.545C836.2 508.545 836.57 508.489 836.905 508.375C837.24 508.261 837.527 508.091 837.766 507.864C838.004 507.636 838.186 507.358 838.311 507.028L841.669 507.25C841.498 508.057 841.149 508.761 840.621 509.364C840.098 509.96 839.422 510.426 838.592 510.761C837.768 511.091 836.817 511.256 835.737 511.256ZM855.967 501.642L852.643 501.847C852.586 501.562 852.464 501.307 852.277 501.08C852.089 500.847 851.842 500.662 851.535 500.526C851.234 500.384 850.873 500.312 850.453 500.312C849.89 500.312 849.416 500.432 849.03 500.67C848.643 500.903 848.45 501.216 848.45 501.608C848.45 501.92 848.575 502.185 848.825 502.401C849.075 502.616 849.504 502.79 850.112 502.92L852.481 503.398C853.754 503.659 854.703 504.08 855.328 504.659C855.953 505.239 856.265 506 856.265 506.943C856.265 507.801 856.012 508.554 855.507 509.202C855.007 509.849 854.319 510.355 853.444 510.719C852.575 511.077 851.572 511.256 850.436 511.256C848.703 511.256 847.322 510.895 846.294 510.173C845.271 509.446 844.672 508.457 844.495 507.207L848.066 507.02C848.174 507.548 848.436 507.952 848.851 508.23C849.265 508.503 849.797 508.639 850.444 508.639C851.081 508.639 851.592 508.517 851.978 508.273C852.37 508.023 852.569 507.702 852.575 507.31C852.569 506.98 852.43 506.71 852.157 506.5C851.885 506.284 851.464 506.119 850.896 506.006L848.629 505.554C847.351 505.298 846.399 504.855 845.774 504.224C845.155 503.594 844.845 502.79 844.845 501.812C844.845 500.972 845.072 500.247 845.527 499.639C845.987 499.031 846.632 498.562 847.461 498.233C848.297 497.903 849.274 497.739 850.393 497.739C852.047 497.739 853.348 498.088 854.297 498.787C855.251 499.486 855.808 500.437 855.967 501.642ZM863.85 493.545L863.517 505.767H860.398L860.057 493.545H863.85ZM861.958 511.222C861.395 511.222 860.912 511.023 860.509 510.625C860.105 510.222 859.906 509.739 859.912 509.176C859.906 508.619 860.105 508.142 860.509 507.744C860.912 507.347 861.395 507.148 861.958 507.148C862.497 507.148 862.972 507.347 863.381 507.744C863.79 508.142 863.997 508.619 864.003 509.176C863.997 509.551 863.898 509.895 863.705 510.207C863.517 510.514 863.27 510.761 862.963 510.949C862.656 511.131 862.321 511.222 861.958 511.222Z" fill="black"/>
<defs>
<linearGradient id="paint0_linear_21_28" x1="640" y1="0" x2="640" y2="640" gradientUnits="userSpaceOnUse">
<stop offset="0.345" stop-color="#00C6AE" stop-opacity="0"/>
<stop offset="1" stop-color="#00C6AE"/>
</linearGradient>
</defs>
</svg>
